<?xml version="1.0" encoding="UTF-8" standalone="no"?>
<!-- Created with Inkscape (http://www.inkscape.org/) -->

<svg
   xmlns:dc="http://purl.org/dc/elements/1.1/"
   xmlns:cc="http://creativecommons.org/ns#"
   xmlns:rdf="http://www.w3.org/1999/02/22-rdf-syntax-ns#"
   xmlns:svg="http://www.w3.org/2000/svg"
   xmlns="http://www.w3.org/2000/svg"
   xmlns:sodipodi="http://sodipodi.sourceforge.net/DTD/sodipodi-0.dtd"
   xmlns:inkscape="http://www.inkscape.org/namespaces/inkscape"
   width="192"
   height="192"
   id="svg2"
   version="1.1"
   inkscape:version="0.48.4 r9939"
   sodipodi:docname="power_ups.svg"
   inkscape:export-filename="/media/Documents/tp/kurve/art/power_ups.png"
   inkscape:export-xdpi="135"
   inkscape:export-ydpi="135">
  <defs
     id="defs4">
    <inkscape:path-effect
       effect="spiro"
       id="path-effect4086"
       is_visible="true" />
    <inkscape:path-effect
       effect="spiro"
       id="path-effect4082"
       is_visible="true" />
    <inkscape:path-effect
       effect="spiro"
       id="path-effect3965"
       is_visible="true" />
  </defs>
  <sodipodi:namedview
     id="base"
     pagecolor="#ffffff"
     bordercolor="#666666"
     borderopacity="1.0"
     inkscape:pageopacity="0.0"
     inkscape:pageshadow="2"
     inkscape:zoom="4.2426407"
     inkscape:cx="86.052674"
     inkscape:cy="115.38038"
     inkscape:document-units="px"
     inkscape:current-layer="layer2"
     showgrid="false"
     inkscape:window-width="1920"
     inkscape:window-height="1025"
     inkscape:window-x="0"
     inkscape:window-y="30"
     inkscape:window-maximized="1"
     showguides="true"
     inkscape:guide-bbox="true"
     inkscape:snap-grids="false"
     inkscape:snap-to-guides="false"
     inkscape:snap-page="false">
    <sodipodi:guide
       orientation="1,0"
       position="32,0"
       id="guide3004" />
    <sodipodi:guide
       orientation="1,0"
       position="64,0"
       id="guide3006" />
    <sodipodi:guide
       orientation="1,0"
       position="96,0"
       id="guide3008" />
    <sodipodi:guide
       orientation="0,1"
       position="0,32"
       id="guide3010" />
    <sodipodi:guide
       orientation="0,1"
       position="0,64"
       id="guide3012" />
    <sodipodi:guide
       orientation="0,1"
       position="0,96"
       id="guide3014" />
    <sodipodi:guide
       position="0,0"
       orientation="0,128"
       id="guide3798" />
    <sodipodi:guide
       position="128,0"
       orientation="-128,0"
       id="guide3800" />
    <sodipodi:guide
       position="128,128"
       orientation="0,-128"
       id="guide3802" />
    <sodipodi:guide
       position="0,128"
       orientation="128,0"
       id="guide3804" />
    <sodipodi:guide
       orientation="0,1"
       position="0,160"
       id="guide3350" />
    <sodipodi:guide
       orientation="1,0"
       position="160,160"
       id="guide3352" />
  </sodipodi:namedview>
  <metadata
     id="metadata7">
    <rdf:RDF>
      <cc:Work
         rdf:about="">
        <dc:format>image/svg+xml</dc:format>
        <dc:type
           rdf:resource="http://purl.org/dc/dcmitype/StillImage" />
        <dc:title />
      </cc:Work>
    </rdf:RDF>
  </metadata>
  <g
     inkscape:groupmode="layer"
     id="layer2"
     inkscape:label="icons"
     transform="translate(0,64)"
     style="display:inline">
    <g
       id="g4407"
       transform="translate(0.0323201,0.228713)">
      <path
         transform="matrix(1.0188944,0,0,1.0188944,-7.7518234,-67.549368)"
         d="M 35.875,19.241072 C 35.875,26.287633 30.162633,32 23.116072,32 16.06951,32 10.357143,26.287633 10.357143,19.241072 c 0,-7.046562 5.712367,-12.7589286 12.758929,-12.7589286 7.046561,0 12.758928,5.7123666 12.758928,12.7589286 z"
         sodipodi:ry="12.758928"
         sodipodi:rx="12.758928"
         sodipodi:cy="19.241072"
         sodipodi:cx="23.116072"
         id="path3016-5-9"
         style="fill:#4caf50;fill-opacity:1;fill-rule:nonzero;stroke:#000000;stroke-width:0;stroke-linecap:butt;stroke-linejoin:miter;stroke-miterlimit:4;stroke-opacity:1;stroke-dasharray:none;stroke-dashoffset:0;display:inline"
         sodipodi:type="arc" />
      <path
         sodipodi:nodetypes="ccccccc"
         inkscape:connector-curvature="0"
         id="path3935"
         d="m 20.186747,-55.848578 -9.74184,8.199171 4.583881,0.752973 -3.583087,6.765866 10.315885,-8.494457 -5.395146,-0.489726 z"
         style="fill:#ffffff;stroke:none" />
    </g>
    <g
       id="g4420"
       transform="translate(-0.1088862,0.228713)">
      <path
         transform="matrix(1.0188944,0,0,1.0188944,56.248186,-67.549368)"
         d="M 35.875,19.241072 C 35.875,26.287633 30.162633,32 23.116072,32 16.06951,32 10.357143,26.287633 10.357143,19.241072 c 0,-7.046562 5.712367,-12.7589286 12.758929,-12.7589286 7.046561,0 12.758928,5.7123666 12.758928,12.7589286 z"
         sodipodi:ry="12.758928"
         sodipodi:rx="12.758928"
         sodipodi:cy="19.241072"
         sodipodi:cx="23.116072"
         id="path3016-5-3"
         style="fill:#4caf50;fill-opacity:1;fill-rule:nonzero;stroke:#000000;stroke-width:0;stroke-linecap:butt;stroke-linejoin:miter;stroke-miterlimit:4;stroke-opacity:1;stroke-dasharray:none;stroke-dashoffset:0;display:inline"
         sodipodi:type="arc" />
      <path
         sodipodi:nodetypes="cccccccccccccccccccccccccccccccccccccccccc"
         inkscape:connector-curvature="0"
         id="path4075"
         d="m 77.275115,-41.05691 c -1.604091,-0.08504 -3.240648,-0.180138 -4.772559,-0.696392 -0.74893,-0.112308 -0.691063,-0.921432 0.08075,-0.843357 0.360058,-0.0896 0.964457,-0.0334 1.207813,-0.119237 -0.952386,-0.791938 -1.663359,-1.921435 -1.861581,-3.147542 0.0082,-0.644303 -0.04195,-1.295847 0.0029,-1.935609 0.429476,-2.25192 2.479296,-4.10873 4.789765,-4.180079 1.483141,-0.120309 2.986818,0.441526 4.023497,1.511305 0.988208,0.964319 1.527394,2.341543 1.527825,3.715715 0.420762,-1.161115 0.452499,-2.402397 0.575422,-3.615619 0.255791,-0.985789 1.264857,-1.718475 2.288445,-1.572709 1.238787,0.0621 2.166308,1.393308 1.878864,2.586596 -0.07248,0.727799 -0.793391,1.145009 -1.155529,1.61862 -0.02406,1.806683 -0.335759,3.803605 -1.728063,5.090817 -1.260708,1.279372 -3.148324,1.614931 -4.877724,1.614128 -0.660006,0.01122 -1.320228,-0.0016 -1.979789,-0.02663 z m -0.545152,-2.695284 c 1.097639,-0.469135 1.957585,-1.040932 1.777688,-2.26022 -0.03899,-0.928682 -0.519233,-1.786888 -1.4943,-1.542064 -0.775186,0.215281 -0.67178,1.202282 -0.03751,1.246187 1.031711,0.624983 -0.4884,1.652108 -1.261016,1.161295 -1.100209,-0.318841 -1.350005,-2.06133 -0.709995,-2.990749 0.693389,-1.13957 2.663187,-1.460866 3.632332,-0.714491 1.416071,1.073735 1.521278,3.705254 0.613023,5.164513 0.259559,-0.0314 0.947922,-0.783468 1.17801,-1.257592 0.88171,-1.503004 0.510491,-3.551168 -0.786288,-4.697064 -1.419157,-1.326683 -3.853093,-1.330377 -5.227497,0.06874 -1.263728,1.132188 -1.567032,3.121386 -0.752834,4.598283 0.561054,1.001276 0.98983,1.194317 2.140861,1.367402 0.137694,-0.0092 0.794497,-0.114725 0.927523,-0.14424 z m 9.285171,-7.684595 c -0.562385,-0.0632 -0.946789,-0.35051 -0.724898,-0.925253 0.129921,-0.80436 0.1852,-1.840608 0.95697,-2.338965 0.793965,-0.420862 1.724879,0.580831 1.208302,1.328606 -0.179224,0.539409 -0.868405,0.201733 -1.074357,0.55604 -0.272686,0.379797 -0.157167,1.143907 -0.366017,1.379572 z m -2.245779,-0.09007 c -0.326585,-0.821127 -0.645559,-1.848379 -0.344896,-2.748178 0.379046,-0.849887 1.764087,-0.536533 1.755979,0.386974 0.06806,0.790788 -1.138052,0.926441 -0.623606,1.78613 0.303901,0.518828 -0.513026,0.569201 -0.787477,0.575074 z"
         style="fill:#ffffff" />
    </g>
    <g
       id="g4424"
       transform="translate(-0.17946625,0.228713)">
      <path
         transform="matrix(1.0188944,0,0,1.0188944,88.248176,-67.549368)"
         d="M 35.875,19.241072 C 35.875,26.287633 30.162633,32 23.116072,32 16.06951,32 10.357143,26.287633 10.357143,19.241072 c 0,-7.046562 5.712367,-12.7589286 12.758929,-12.7589286 7.046561,0 12.758928,5.7123666 12.758928,12.7589286 z"
         sodipodi:ry="12.758928"
         sodipodi:rx="12.758928"
         sodipodi:cy="19.241072"
         sodipodi:cx="23.116072"
         id="path3016-5-8"
         style="fill:#4caf50;fill-opacity:1;fill-rule:nonzero;stroke:#000000;stroke-width:0;stroke-linecap:butt;stroke-linejoin:miter;stroke-miterlimit:4;stroke-opacity:1;stroke-dasharray:none;stroke-dashoffset:0;display:inline"
         sodipodi:type="arc" />
      <g
         id="g4118"
         transform="matrix(0.52568516,-0.52568516,0.52568516,0.52568516,44.235577,3.7713677)">
        <path
           style="fill:#ffffff;fill-opacity:1;fill-rule:nonzero;stroke:none"
           d="m 103.75,13.375 c -1.29388,0 -2.34375,1.018618 -2.34375,2.3125 0,1.293882 1.04987,2.34375 2.34375,2.34375 l 7.4375,0 c 0.36619,-0.742888 0.59172,-1.805974 -0.28125,-2.71875 -0.61845,-0.646673 -0.70986,-1.328405 -0.625,-1.9375 l -6.53125,0 z"
           id="path4112"
           inkscape:connector-curvature="0" />
        <path
           inkscape:connector-curvature="0"
           style="fill:#ffffff;fill-opacity:1;fill-rule:nonzero;stroke:none"
           d="m 115.29032,13.375 c -0.2058,0.671378 -0.21403,1.44233 0.46875,2.15625 0.8049,0.841641 0.76116,1.798869 0.53125,2.5 l 6.78125,0 c 1.29388,0 2.34375,-1.049868 2.34375,-2.34375 0,-1.293882 -1.04987,-2.3125 -2.34375,-2.3125 l -7.78125,0 z"
           id="rect4078" />
      </g>
      <path
         transform="matrix(0.79775208,0,0,0.79775208,101.65253,-64.143621)"
         d="m 22.875,13.8125 c 0,1.691372 -1.371128,3.0625 -3.0625,3.0625 -1.691372,0 -3.0625,-1.371128 -3.0625,-3.0625 0,-1.691372 1.371128,-3.0625 3.0625,-3.0625 1.691372,0 3.0625,1.371128 3.0625,3.0625 z"
         sodipodi:ry="3.0625"
         sodipodi:rx="3.0625"
         sodipodi:cy="13.8125"
         sodipodi:cx="19.8125"
         id="path4274-4"
         style="fill:#ffffff;fill-opacity:1;fill-rule:nonzero;stroke:#4caf50;stroke-width:1.25352228;stroke-miterlimit:4;stroke-opacity:1;stroke-dasharray:none"
         sodipodi:type="arc" />
    </g>
    <g
       id="g4439"
       transform="translate(0.0323201,0.19938853)">
      <path
         transform="matrix(1.0188944,0,0,1.0188944,-7.7518234,-35.549368)"
         d="M 35.875,19.241072 C 35.875,26.287633 30.162633,32 23.116072,32 16.06951,32 10.357143,26.287633 10.357143,19.241072 c 0,-7.046562 5.712367,-12.7589286 12.758929,-12.7589286 7.046561,0 12.758928,5.7123666 12.758928,12.7589286 z"
         sodipodi:ry="12.758928"
         sodipodi:rx="12.758928"
         sodipodi:cy="19.241072"
         sodipodi:cx="23.116072"
         id="path3016-5-2"
         style="fill:#4caf50;fill-opacity:1;fill-rule:nonzero;stroke:#000000;stroke-width:0;stroke-linecap:butt;stroke-linejoin:miter;stroke-miterlimit:4;stroke-opacity:1;stroke-dasharray:none;stroke-dashoffset:0;display:inline"
         sodipodi:type="arc" />
      <rect
         transform="matrix(0.70710678,-0.70710678,0.70710678,0.70710678,0,0)"
         ry="1.6320993"
         y="-1.6545879"
         x="14.246544"
         height="3.5400472"
         width="16.70718"
         id="rect4122"
         style="fill:#ffffff;fill-opacity:1;fill-rule:nonzero;stroke:none" />
      <path
         inkscape:connector-curvature="0"
         id="rect4124"
         d="m 8.7136544,-20.696845 c -0.4581421,0.740623 -0.7975268,1.553782 -1.0175776,2.420184 l 6.7930172,0 2.392683,-2.420184 -8.1681226,0 z m 12.1559266,3.9328 -2.447686,2.475188 0,6.5454997 c 0.885417,-0.24426 1.699542,-0.634423 2.447686,-1.127586 l 0,-7.8931017 z"
         style="fill:#ffffff;fill-opacity:1;fill-rule:nonzero;stroke:none" />
      <path
         transform="matrix(0.7020754,0,0,0.7020754,6.7623149,-30.054148)"
         d="m 22.875,13.8125 c 0,1.691372 -1.371128,3.0625 -3.0625,3.0625 -1.691372,0 -3.0625,-1.371128 -3.0625,-3.0625 0,-1.691372 1.371128,-3.0625 3.0625,-3.0625 1.691372,0 3.0625,1.371128 3.0625,3.0625 z"
         sodipodi:ry="3.0625"
         sodipodi:rx="3.0625"
         sodipodi:cy="13.8125"
         sodipodi:cx="19.8125"
         id="path4274-4-2"
         style="fill:#ffffff;fill-opacity:1;fill-rule:nonzero;stroke:#4caf50;stroke-width:1.25352228;stroke-miterlimit:4;stroke-opacity:1;stroke-dasharray:none"
         sodipodi:type="arc" />
    </g>
    <g
       id="g4445"
       transform="translate(-0.03827748,0.19937853)">
      <path
         transform="matrix(1.0188944,0,0,1.0188944,24.248176,-35.549358)"
         d="M 35.875,19.241072 C 35.875,26.287633 30.162633,32 23.116072,32 16.06951,32 10.357143,26.287633 10.357143,19.241072 c 0,-7.046562 5.712367,-12.7589286 12.758929,-12.7589286 7.046561,0 12.758928,5.7123666 12.758928,12.7589286 z"
         sodipodi:ry="12.758928"
         sodipodi:rx="12.758928"
         sodipodi:cy="19.241072"
         sodipodi:cx="23.116072"
         id="path3016-5-20"
         style="fill:#4caf50;fill-opacity:1;fill-rule:nonzero;stroke:#000000;stroke-width:0;stroke-linecap:butt;stroke-linejoin:miter;stroke-miterlimit:4;stroke-opacity:1;stroke-dasharray:none;stroke-dashoffset:0;display:inline"
         sodipodi:type="arc" />
      <path
         sodipodi:nodetypes="sssscscccsscsscccs"
         inkscape:connector-curvature="0"
         id="rect4232"
         d="m 55.212093,-17.351099 c 0.590454,-0.590454 0.590454,-1.541147 -1e-6,-2.1316 -0.590453,-0.590453 -1.541146,-0.590453 -2.131599,0 l -7.777009,7.777009 c -0.0111,0.01109 -0.02263,0.02196 -0.0333,0.0333 -0.294096,0.294095 -0.771704,0.294094 -1.0658,-10e-7 -0.294096,-0.294096 -0.294096,-0.771703 0,-1.065799 0.01106,-0.01106 0.02225,-0.02225 0.03331,-0.03331 2.592336,-2.592335 5.184673,-5.184672 7.777009,-7.777008 0.590454,-0.590454 0.590454,-1.541147 -10e-7,-2.1316 -0.590453,-0.590453 -1.541146,-0.590453 -2.131599,0 l -7.777009,7.777009 c -0.01148,0.01119 -0.02194,0.02194 -0.03331,0.03331 -1.471563,1.471563 -1.471563,3.857436 0,5.3289987 1.40822,1.40822 3.64886,1.453519 5.129163,0.166531 0.07086,-0.04688 0.135888,-0.106402 0.199837,-0.16653 0.01149,-0.01149 0.02177,-0.02224 0.0333,-0.03331 z"
         style="fill:#ffffff;fill-opacity:1;fill-rule:nonzero;stroke:none" />
      <path
         transform="matrix(0.73824075,0,0,0.73824075,38.969609,-27.818185)"
         d="m 22.875,13.8125 c 0,1.691372 -1.371128,3.0625 -3.0625,3.0625 -1.691372,0 -3.0625,-1.371128 -3.0625,-3.0625 0,-1.691372 1.371128,-3.0625 3.0625,-3.0625 1.691372,0 3.0625,1.371128 3.0625,3.0625 z"
         sodipodi:ry="3.0625"
         sodipodi:rx="3.0625"
         sodipodi:cy="13.8125"
         sodipodi:cx="19.8125"
         id="path4274-4-2-2"
         style="fill:#ffffff;fill-opacity:1;fill-rule:nonzero;stroke:#4caf50;stroke-width:1.25352228;stroke-miterlimit:4;stroke-opacity:1;stroke-dasharray:none"
         sodipodi:type="arc" />
    </g>
    <g
       id="g4450"
       transform="translate(-0.1088762,0.19937853)">
      <path
         transform="matrix(1.0188944,0,0,1.0188944,56.248176,-35.549358)"
         d="M 35.875,19.241072 C 35.875,26.287633 30.162633,32 23.116072,32 16.06951,32 10.357143,26.287633 10.357143,19.241072 c 0,-7.046562 5.712367,-12.7589286 12.758929,-12.7589286 7.046561,0 12.758928,5.7123666 12.758928,12.7589286 z"
         sodipodi:ry="12.758928"
         sodipodi:rx="12.758928"
         sodipodi:cy="19.241072"
         sodipodi:cx="23.116072"
         id="path3016-5-94"
         style="fill:#4caf50;fill-opacity:1;fill-rule:nonzero;stroke:#000000;stroke-width:0;stroke-linecap:butt;stroke-linejoin:miter;stroke-miterlimit:4;stroke-opacity:1;stroke-dasharray:none;stroke-dashoffset:0;display:inline"
         sodipodi:type="arc" />
      <path
         style="fill:#ffffff"
         id="path4"
         d="m 83.000598,-22.05021 3.509321,3.502231 c 0.552984,0.560072 0.552984,1.453355 0,2.013428 l -6.515283,6.515282 c -1.105968,1.1059693 -2.89962,1.1059693 -4.012678,0 l -2.502605,-2.502606 c -0.552985,-0.560072 -0.552985,-1.453353 0,-2.013427 l 7.514907,-7.514908 c 0.560074,-0.552983 1.453355,-0.552983 2.006338,0 m -8.521621,8.521621 2.509696,2.502607 c 0.552984,0.560073 1.446264,0.560073 2.006338,0 l 2.502606,-2.502607 -3.50932,-3.509319 -3.50932,3.509319 z"
         inkscape:connector-curvature="0" />
    </g>
    <g
       id="g4454"
       transform="translate(-0.17946625,0.16182665)">
      <path
         transform="matrix(1.0188944,0,0,1.0188944,88.248176,-35.549358)"
         d="M 35.875,19.241072 C 35.875,26.287633 30.162633,32 23.116072,32 16.06951,32 10.357143,26.287633 10.357143,19.241072 c 0,-7.046562 5.712367,-12.7589286 12.758929,-12.7589286 7.046561,0 12.758928,5.7123666 12.758928,12.7589286 z"
         sodipodi:ry="12.758928"
         sodipodi:rx="12.758928"
         sodipodi:cy="19.241072"
         sodipodi:cx="23.116072"
         id="path3016-5-05"
         style="fill:#f44336;fill-opacity:1;fill-rule:nonzero;stroke:#000000;stroke-width:0;stroke-linecap:butt;stroke-linejoin:miter;stroke-miterlimit:4;stroke-opacity:1;stroke-dasharray:none;stroke-dashoffset:0;display:inline"
         sodipodi:type="arc" />
      <path
         sodipodi:nodetypes="ccccccc"
         inkscape:connector-curvature="0"
         id="path3935-4"
         d="m 116.32658,-23.77218 -9.74184,8.19917 4.58388,0.752973 -3.58308,6.7658667 10.31588,-8.4944577 -5.39514,-0.489726 z"
         style="fill:#ffffff;stroke:none" />
    </g>
    <g
       id="g4483"
       transform="translate(-0.1088762,0.17003781)">
      <path
         transform="matrix(1.0188944,0,0,1.0188944,56.248176,-3.5493483)"
         d="M 35.875,19.241072 C 35.875,26.287633 30.162633,32 23.116072,32 16.06951,32 10.357143,26.287633 10.357143,19.241072 c 0,-7.046562 5.712367,-12.7589286 12.758929,-12.7589286 7.046561,0 12.758928,5.7123666 12.758928,12.7589286 z"
         sodipodi:ry="12.758928"
         sodipodi:rx="12.758928"
         sodipodi:cy="19.241072"
         sodipodi:cx="23.116072"
         id="path3016-5-92"
         style="fill:#f44336;fill-opacity:1;fill-rule:nonzero;stroke:#000000;stroke-width:0;stroke-linecap:butt;stroke-linejoin:miter;stroke-miterlimit:4;stroke-opacity:1;stroke-dasharray:none;stroke-dashoffset:0;display:inline"
         sodipodi:type="arc" />
      <g
         id="g4499"
         transform="matrix(0.8288915,-0.8288915,0.8288915,0.8288915,-51.324839,15.675647)">
        <g
           style="display:inline"
           id="g4025-6-9"
           transform="matrix(-0.6215066,0.6215066,-0.6215066,-0.6215066,688.02808,638.27486)">
          <rect
             y="935.79968"
             x="39.279354"
             height="4"
             width="3.375"
             id="rect4021-2-5"
             style="fill:#ffffff;fill-opacity:1;fill-rule:nonzero;stroke:none" />
          <path
             inkscape:transform-center-y="-0.67508876"
             transform="matrix(0.75540148,0,0,0.39162572,14.102888,932.26083)"
             d="m 42.124553,10.601103 c -0.262482,0.454632 -12.861624,0.454632 -13.124106,0 -0.262483,-0.454633 6.037089,-11.36581009 6.562053,-11.36581009 0.524964,0 6.824536,10.91117709 6.562053,11.36581009 z"
             inkscape:randomized="0"
             inkscape:rounded="0.04"
             inkscape:flatsided="true"
             sodipodi:arg2="1.5707963"
             sodipodi:arg1="0.52359878"
             sodipodi:r2="3.7886033"
             sodipodi:r1="7.5772066"
             sodipodi:cy="6.8124995"
             sodipodi:cx="35.5625"
             sodipodi:sides="3"
             id="path4023-51-3"
             style="fill:#ffffff;fill-opacity:1;fill-rule:nonzero;stroke:none"
             sodipodi:type="star" />
        </g>
        <g
           style="display:inline"
           id="g4025-9-3-7"
           transform="matrix(0.6215066,-0.6215066,0.6215066,0.6215066,-530.47298,-478.38153)">
          <rect
             y="935.79968"
             x="39.279354"
             height="4"
             width="3.375"
             id="rect4021-9-9-7"
             style="fill:#ffffff;fill-opacity:1;fill-rule:nonzero;stroke:none" />
          <path
             inkscape:transform-center-y="-0.67508876"
             transform="matrix(0.75540148,0,0,0.39162572,14.102888,932.26083)"
             d="m 42.124553,10.601103 c -0.262482,0.454632 -12.861624,0.454632 -13.124106,0 -0.262483,-0.454633 6.037089,-11.36581009 6.562053,-11.36581009 0.524964,0 6.824536,10.91117709 6.562053,11.36581009 z"
             inkscape:randomized="0"
             inkscape:rounded="0.04"
             inkscape:flatsided="true"
             sodipodi:arg2="1.5707963"
             sodipodi:arg1="0.52359878"
             sodipodi:r2="3.7886033"
             sodipodi:r1="7.5772066"
             sodipodi:cy="6.8124995"
             sodipodi:cx="35.5625"
             sodipodi:sides="3"
             id="path4023-5-7-4"
             style="fill:#ffffff;fill-opacity:1;fill-rule:nonzero;stroke:none"
             sodipodi:type="star" />
        </g>
      </g>
    </g>
    <g
       id="g4479"
       transform="translate(-0.03827748,0.17003781)">
      <path
         transform="matrix(1.0188944,0,0,1.0188944,24.248176,-3.5493483)"
         d="M 35.875,19.241072 C 35.875,26.287633 30.162633,32 23.116072,32 16.06951,32 10.357143,26.287633 10.357143,19.241072 c 0,-7.046562 5.712367,-12.7589286 12.758929,-12.7589286 7.046561,0 12.758928,5.7123666 12.758928,12.7589286 z"
         sodipodi:ry="12.758928"
         sodipodi:rx="12.758928"
         sodipodi:cy="19.241072"
         sodipodi:cx="23.116072"
         id="path3016-5-95"
         style="fill:#f44336;fill-opacity:1;fill-rule:nonzero;stroke:#000000;stroke-width:0;stroke-linecap:butt;stroke-linejoin:miter;stroke-miterlimit:4;stroke-opacity:1;stroke-dasharray:none;stroke-dashoffset:0;display:inline"
         sodipodi:type="arc" />
      <path
         sodipodi:nodetypes="cccccccccccccccccccccccccccccccccccccccccc"
         inkscape:connector-curvature="0"
         id="path4075-6"
         d="m 45.182795,23.023189 c -1.604091,-0.08504 -3.240648,-0.180138 -4.772559,-0.696392 -0.74893,-0.112308 -0.691063,-0.921432 0.08075,-0.843357 0.360058,-0.0896 0.964457,-0.0334 1.207813,-0.119237 -0.952386,-0.791938 -1.663359,-1.921435 -1.861581,-3.147542 0.0082,-0.644303 -0.04195,-1.295847 0.0029,-1.935609 0.429476,-2.25192 2.479296,-4.10873 4.789765,-4.180079 1.483141,-0.120309 2.986818,0.441526 4.023497,1.511305 0.988208,0.964319 1.527394,2.341543 1.527825,3.715715 0.420762,-1.161115 0.452499,-2.402397 0.575422,-3.615619 0.255791,-0.985789 1.264857,-1.718475 2.288445,-1.572709 1.238787,0.0621 2.166308,1.393308 1.878864,2.586596 -0.07248,0.727799 -0.793391,1.145009 -1.155529,1.61862 -0.02406,1.806683 -0.335759,3.803605 -1.728063,5.090817 -1.260708,1.279372 -3.148324,1.614931 -4.877724,1.614128 -0.660006,0.01122 -1.320228,-0.0016 -1.979789,-0.02663 z m -0.545152,-2.695284 c 1.097639,-0.469135 1.957585,-1.040932 1.777688,-2.26022 -0.03899,-0.928682 -0.519233,-1.786888 -1.4943,-1.542064 -0.775186,0.215281 -0.67178,1.202282 -0.03751,1.246187 1.031711,0.624983 -0.4884,1.652108 -1.261016,1.161295 -1.100209,-0.318841 -1.350005,-2.06133 -0.709995,-2.990749 0.693389,-1.13957 2.663187,-1.460866 3.632332,-0.714491 1.416071,1.073735 1.521278,3.705254 0.613023,5.164513 0.259559,-0.0314 0.947922,-0.783468 1.17801,-1.257592 0.88171,-1.503004 0.510491,-3.551168 -0.786288,-4.697064 -1.419157,-1.326683 -3.853093,-1.330377 -5.227497,0.06874 -1.263728,1.132188 -1.567032,3.121386 -0.752834,4.598283 0.561054,1.001276 0.98983,1.194317 2.140861,1.367402 0.137694,-0.0092 0.794497,-0.114725 0.927523,-0.14424 z m 9.285171,-7.684595 c -0.562385,-0.0632 -0.946789,-0.35051 -0.724898,-0.925253 0.129921,-0.80436 0.1852,-1.840607 0.95697,-2.3389643 0.793965,-0.420862 1.724879,0.5808313 1.208302,1.3286053 -0.179224,0.539409 -0.868405,0.201733 -1.074357,0.55604 -0.272686,0.379797 -0.157167,1.143907 -0.366017,1.379572 z m -2.245779,-0.09007 c -0.326585,-0.821127 -0.645559,-1.848379 -0.344896,-2.748177 0.379046,-0.8498883 1.764087,-0.5365343 1.755979,0.386974 0.06806,0.790787 -1.138052,0.92644 -0.623606,1.786129 0.303901,0.518828 -0.513026,0.569201 -0.787477,0.575074 z"
         style="fill:#ffffff" />
    </g>
    <g
       id="g4511"
       transform="translate(0.0323201,0.14070664)">
      <path
         transform="matrix(1.0188944,0,0,1.0188944,-7.7518234,28.450662)"
         d="M 35.875,19.241072 C 35.875,26.287633 30.162633,32 23.116072,32 16.06951,32 10.357143,26.287633 10.357143,19.241072 c 0,-7.046562 5.712367,-12.7589286 12.758929,-12.7589286 7.046561,0 12.758928,5.7123666 12.758928,12.7589286 z"
         sodipodi:ry="12.758928"
         sodipodi:rx="12.758928"
         sodipodi:cy="19.241072"
         sodipodi:cx="23.116072"
         id="path3016"
         style="fill:#2196f3;fill-opacity:1;fill-rule:nonzero;stroke:#000000;stroke-width:0;stroke-linecap:butt;stroke-linejoin:miter;stroke-miterlimit:4;stroke-opacity:1;stroke-dasharray:none;stroke-dashoffset:0;display:inline"
         sodipodi:type="arc" />
      <g
         id="g4614"
         transform="translate(0.45153558,-0.23329433)">
        <rect
           style="fill:#ffffff;fill-opacity:1;fill-rule:nonzero;stroke:none"
           id="rect4122-1"
           width="16.70718"
           height="3.5400472"
           x="-31.008289"
           y="43.364544"
           ry="1.6320993"
           transform="matrix(0.70710678,-0.70710678,0.70710678,0.70710678,0,0)" />
        <g
           id="g4610">
          <path
             inkscape:connector-curvature="0"
             id="rect4124-5"
             d="M 8.5469878,43.136488 C 8.0888457,43.877111 7.749461,44.69027 7.5294102,45.556672 l 6.7930178,0 2.392683,-2.420184 -8.1681232,0 z m 12.1559272,3.9328 -2.447686,2.475188 0,6.5455 c 0.885417,-0.24426 1.699542,-0.634423 2.447686,-1.127586 l 0,-7.893102 z"
             style="fill:#ffffff;fill-opacity:1;fill-rule:nonzero;stroke:none" />
          <path
             transform="matrix(0.7020754,0,0,0.7020754,6.5956483,33.779185)"
             d="m 22.875,13.8125 c 0,1.691372 -1.371128,3.0625 -3.0625,3.0625 -1.691372,0 -3.0625,-1.371128 -3.0625,-3.0625 0,-1.691372 1.371128,-3.0625 3.0625,-3.0625 1.691372,0 3.0625,1.371128 3.0625,3.0625 z"
             sodipodi:ry="3.0625"
             sodipodi:rx="3.0625"
             sodipodi:cy="13.8125"
             sodipodi:cx="19.8125"
             id="path4274-4-2-1"
             style="fill:#ffffff;fill-opacity:1;fill-rule:nonzero;stroke:#2196f3;stroke-width:1.25352228;stroke-miterlimit:4;stroke-opacity:1;stroke-dasharray:none"
             sodipodi:type="arc" />
        </g>
      </g>
    </g>
    <g
       id="g4519"
       transform="translate(-0.03827748,0.14070664)">
      <path
         transform="matrix(1.0188944,0,0,1.0188944,24.248176,28.450662)"
         d="M 35.875,19.241072 C 35.875,26.287633 30.162633,32 23.116072,32 16.06951,32 10.357143,26.287633 10.357143,19.241072 c 0,-7.046562 5.712367,-12.7589286 12.758929,-12.7589286 7.046561,0 12.758928,5.7123666 12.758928,12.7589286 z"
         sodipodi:ry="12.758928"
         sodipodi:rx="12.758928"
         sodipodi:cy="19.241072"
         sodipodi:cx="23.116072"
         id="path3016-5-91"
         style="fill:#2196f3;fill-opacity:1;fill-rule:nonzero;stroke:#000000;stroke-width:0;stroke-linecap:butt;stroke-linejoin:miter;stroke-miterlimit:4;stroke-opacity:1;stroke-dasharray:none;stroke-dashoffset:0;display:inline"
         sodipodi:type="arc" />
      <path
         inkscape:connector-curvature="0"
         id="path4665"
         d="m 47.965665,40.299807 c -4.097785,0 -7.407178,3.18419 -7.407178,7.09784 0,1.88818 0.7674,3.59351 2.027951,4.86365 l 0,1.01397 c 0,1.06085 0.863989,1.92484 1.92484,1.92484 0.539463,0 1.027481,-0.22773 1.374881,-0.58433 0.101508,0.96391 0.898782,1.71861 1.890469,1.71861 1.037956,0 1.871882,-0.82716 1.907643,-1.85609 0.350405,0.43614 0.872471,0.72181 1.478003,0.72181 1.060851,0 1.92484,-0.86399 1.92484,-1.92484 l 0,-0.75618 c 1.419937,-1.29084 2.302925,-3.10137 2.302925,-5.12144 0,-3.91365 -3.326578,-7.09784 -7.424374,-7.09784 z m -3.041921,3.74656 c 1.345597,0 2.423232,1.09481 2.423232,2.44041 0,1.34561 -1.077635,2.42324 -2.423232,2.42324 -1.345607,0 -2.440417,-1.07763 -2.440417,-2.42324 0,-1.3456 1.09481,-2.44041 2.440417,-2.44041 z m 6.101038,0.17186 c 1.345607,0 2.440417,1.09481 2.440417,2.44041 0,1.34561 -1.09481,2.44042 -2.440417,2.44042 -1.345597,0 -2.440417,-1.09481 -2.440417,-2.44042 0,-1.3456 1.09482,-2.44041 2.440417,-2.44041 z m -3.059117,4.72616 c 0.116445,0 1.51904,2.42551 1.460818,2.52635 -0.05821,0.10084 -2.846228,0.10084 -2.90444,0 -0.05821,-0.10084 1.327188,-2.52635 1.443622,-2.52635 z"
         style="fill:#ffffff;fill-opacity:1;fill-rule:nonzero;stroke:none" />
    </g>
    <g
       id="g4568"
       transform="translate(-0.1411972,0)">
      <g
         transform="translate(0.032314,0.14071164)"
         id="g4523">
        <path
           sodipodi:type="arc"
           style="fill:#2196f3;fill-opacity:1;fill-rule:nonzero;stroke:#000000;stroke-width:0;stroke-linecap:butt;stroke-linejoin:miter;stroke-miterlimit:4;stroke-opacity:1;stroke-dasharray:none;stroke-dashoffset:0"
           id="path3016-5-4"
           sodipodi:cx="23.116072"
           sodipodi:cy="19.241072"
           sodipodi:rx="12.758928"
           sodipodi:ry="12.758928"
           d="M 35.875,19.241072 C 35.875,26.287633 30.162633,32 23.116072,32 16.06951,32 10.357143,26.287633 10.357143,19.241072 c 0,-7.046562 5.712367,-12.7589286 12.758929,-12.7589286 7.046561,0 12.758928,5.7123666 12.758928,12.7589286 z"
           transform="matrix(1.0188944,0,0,1.0188944,56.248183,28.450657)" />
      </g>
      <g
         id="g4799"
         transform="matrix(1.1422362,0,0,1.1422362,-11.654859,-6.9876564)">
        <path
           sodipodi:type="arc"
           style="fill:#ffffff;fill-opacity:1;fill-rule:nonzero;stroke:none"
           id="path4756"
           sodipodi:cx="75"
           sodipodi:cy="109.625"
           sodipodi:rx="4.25"
           sodipodi:ry="4.25"
           d="m 79.25,109.625 c 0,2.34721 -1.90279,4.25 -4.25,4.25 -2.34721,0 -4.25,-1.90279 -4.25,-4.25 0,-2.34721 1.90279,-4.25 4.25,-4.25 2.34721,0 4.25,1.90279 4.25,4.25 z"
           transform="matrix(0.7504329,0,0,0.7504329,28.676829,-34.318149)" />
        <path
           sodipodi:type="arc"
           style="fill:#ffffff;fill-opacity:1;fill-rule:nonzero;stroke:none"
           id="path4756-1"
           sodipodi:cx="75"
           sodipodi:cy="109.625"
           sodipodi:rx="4.25"
           sodipodi:ry="4.25"
           d="m 79.25,109.625 c 0,2.34721 -1.90279,4.25 -4.25,4.25 -2.34721,0 -4.25,-1.90279 -4.25,-4.25 0,-2.34721 1.90279,-4.25 4.25,-4.25 2.34721,0 4.25,1.90279 4.25,4.25 z"
           transform="matrix(0.93760818,0,0,0.93760818,6.5486576,-56.703175)" />
        <path
           sodipodi:type="arc"
           style="fill:#ffffff;fill-opacity:1;fill-rule:nonzero;stroke:none"
           id="path4756-1-2"
           sodipodi:cx="75"
           sodipodi:cy="109.625"
           sodipodi:rx="4.25"
           sodipodi:ry="4.25"
           d="m 79.25,109.625 c 0,2.34721 -1.90279,4.25 -4.25,4.25 -2.34721,0 -4.25,-1.90279 -4.25,-4.25 0,-2.34721 1.90279,-4.25 4.25,-4.25 2.34721,0 4.25,1.90279 4.25,4.25 z"
           transform="matrix(0.52166301,0,0,0.52166301,40.996109,-4.4986095)" />
      </g>
    </g>
    <g
       id="g4551"
       transform="matrix(1.1190739,0,0,1.1190739,-10.190351,-6.1736106)">
      <g
         style="display:inline"
         id="g4526"
         transform="matrix(0.89359604,0,0,0.89359604,8.8879251,5.342687)">
        <path
           transform="matrix(1.0188944,0,0,1.0188944,88.312816,28.673462)"
           d="M 35.875,19.241072 C 35.875,26.287633 30.162633,32 23.116072,32 16.06951,32 10.357143,26.287633 10.357143,19.241072 c 0,-7.046562 5.712367,-12.7589286 12.758929,-12.7589286 7.046561,0 12.758928,5.7123666 12.758928,12.7589286 z"
           sodipodi:ry="12.758928"
           sodipodi:rx="12.758928"
           sodipodi:cy="19.241072"
           sodipodi:cx="23.116072"
           id="path3016-5-1"
           style="fill:#2196f3;fill-opacity:1;fill-rule:nonzero;stroke:#000000;stroke-width:0;stroke-linecap:butt;stroke-linejoin:miter;stroke-miterlimit:4;stroke-opacity:1;stroke-dasharray:none;stroke-dashoffset:0;display:inline"
           sodipodi:type="arc" />
      </g>
      <g
         id="g3086"
         transform="translate(-0.1489327,-33.956649)">
        <g
           transform="translate(0,33.956649)"
           id="text4808"
           style="font-size:35.74384308px;font-style:normal;font-weight:normal;line-height:125%;letter-spacing:0px;word-spacing:0px;fill:#000000;fill-opacity:1;stroke:none;font-family:Sans">
          <path
             style="fill:#ffffff"
             id="path4-4"
             d="m 115.20941,51.430749 c 0,0.256248 -0.1416,0.478781 -0.35739,0.593418 l -5.32729,2.994071 c -0.10794,0.08092 -0.24276,0.12138 -0.38437,0.12138 -0.14162,0 -0.27649,-0.04046 -0.38438,-0.12138 l -5.32729,-2.994071 c -0.21579,-0.114632 -0.35739,-0.33717 -0.35739,-0.593418 v -6.069061 c 0,-0.256248 0.1416,-0.478781 0.35739,-0.593418 l 5.32729,-2.994071 c 0.10794,-0.08092 0.24276,-0.12138 0.38438,-0.12138 0.14161,0 0.27648,0.04046 0.38437,0.12138 l 5.32729,2.994071 c 0.21579,0.114632 0.35739,0.33717 0.35739,0.593418 v 6.069061 m -10.45227,-1.470062 c -0.37088,-0.215788 -0.67433,-0.08092 -0.67433,0.289967 0,0.370886 0.30345,0.842925 0.67433,1.058713 0.3709,0.209045 0.67435,0.07418 0.67435,-0.296709 0,-0.370888 -0.30345,-0.842925 -0.67435,-1.051971 m 0,-2.697359 c -0.37088,-0.21579 -0.67433,-0.08092 -0.67433,0.289965 0,0.370887 0.30345,0.842926 0.67433,1.058715 0.3709,0.209045 0.67435,0.07418 0.67435,-0.29671 0,-0.370887 -0.30345,-0.842925 -0.67435,-1.05197 m 2.69736,4.221367 c -0.37088,-0.209045 -0.67434,-0.08092 -0.67434,0.283223 0,0.384374 0.30346,0.856412 0.67434,1.065457 0.37089,0.209046 0.67435,0.08092 0.67435,-0.289966 0,-0.37763 -0.30346,-0.849669 -0.67435,-1.058714 m -1.34868,-2.110683 c -0.37087,-0.209046 -0.67433,-0.08092 -0.67433,0.289966 0,0.370887 0.30346,0.849668 0.67433,1.058713 0.37089,0.209047 0.67434,0.08092 0.67434,-0.303453 0,-0.364143 -0.30345,-0.836181 -0.67434,-1.045226 m 1.34868,-0.586676 c -0.37088,-0.209046 -0.67434,-0.08092 -0.67434,0.283222 0,0.384373 0.30346,0.856412 0.67434,1.065457 0.37089,0.209046 0.67435,0.08092 0.67435,-0.289966 0,-0.377631 -0.30346,-0.849668 -0.67435,-1.058713 m 6.06907,1.173351 c -0.3709,0.209046 -0.67435,0.681083 -0.67435,1.051971 0,0.370887 0.30345,0.505754 0.67435,0.296709 0.37088,-0.215788 0.67434,-0.687827 0.67434,-1.058713 0,-0.370888 -0.30346,-0.505755 -0.67434,-0.289967 m 0,-2.697359 c -0.3709,0.209045 -0.67435,0.681083 -0.67435,1.05197 0,0.370887 0.30345,0.505755 0.67435,0.29671 0.37088,-0.215789 0.67434,-0.687828 0.67434,-1.058715 0,-0.370886 -0.30346,-0.505755 -0.67434,-0.289965 m -2.69736,4.221367 c -0.37089,0.209045 -0.67435,0.681084 -0.67435,1.058714 0,0.370887 0.30346,0.499012 0.67435,0.289966 0.37088,-0.209045 0.67434,-0.681083 0.67434,-1.065457 0,-0.364143 -0.30346,-0.492268 -0.67434,-0.283223 m 0,-2.697359 c -0.37089,0.209045 -0.67435,0.681082 -0.67435,1.058713 0,0.370888 0.30346,0.499012 0.67435,0.289966 0.37088,-0.209045 0.67434,-0.681084 0.67434,-1.065457 0,-0.364142 -0.30346,-0.492268 -0.67434,-0.283222 m 1.34868,-3.243575 c 0.36414,-0.215789 0.39786,-0.546216 0.0809,-0.728287 -0.32369,-0.188816 -0.88338,-0.161843 -1.25427,0.05395 -0.37089,0.215789 -0.4046,0.546216 -0.0809,0.728288 0.31693,0.188815 0.88338,0.161841 1.25427,-0.05395 m -5.01035,0.222533 c 0.36415,-0.21579 0.40461,-0.539472 0.0809,-0.741775 -0.32368,-0.175328 -0.88338,-0.148354 -1.24753,0.06743 -0.37089,0.222534 -0.41135,0.546216 -0.0877,0.735032 0.32369,0.182071 0.8699,0.161841 1.25428,-0.06068 m 2.5018,-0.107895 c 0.37089,-0.222533 0.4046,-0.546215 0.0809,-0.735031 -0.31693,-0.182072 -0.88338,-0.161841 -1.24752,0.06068 -0.37089,0.215788 -0.40461,0.53947 -0.0877,0.714799 0.32368,0.202302 0.88338,0.175328 1.25426,-0.04046 z"
             inkscape:connector-curvature="0" />
        </g>
      </g>
    </g>
    <g
       id="g4466"
       transform="translate(0.0323201,0.17003781)">
      <path
         transform="matrix(1.0188944,0,0,1.0188944,-7.7518234,-3.5493483)"
         d="M 35.875,19.241072 C 35.875,26.287633 30.162633,32 23.116072,32 16.06951,32 10.357143,26.287633 10.357143,19.241072 c 0,-7.046562 5.712367,-12.7589286 12.758929,-12.7589286 7.046561,0 12.758928,5.7123666 12.758928,12.7589286 z"
         sodipodi:ry="12.758928"
         sodipodi:rx="12.758928"
         sodipodi:cy="19.241072"
         sodipodi:cx="23.116072"
         id="path3016-5"
         style="fill:#f44336;fill-opacity:1;fill-rule:nonzero;stroke:#000000;stroke-width:0;stroke-linecap:butt;stroke-linejoin:miter;stroke-miterlimit:4;stroke-opacity:1;stroke-dasharray:none;stroke-dashoffset:0;display:inline"
         sodipodi:type="arc" />
      <rect
         transform="matrix(-0.70710678,0.70710678,-0.70710678,-0.70710678,0,0)"
         y="-28.967363"
         x="-1.1108521"
         height="3.5157723"
         width="2.9664328"
         id="rect4021-2"
         style="fill:#ffffff;fill-opacity:1;fill-rule:nonzero;stroke:none" />
      <path
         inkscape:transform-center-y="-0.67508876"
         transform="matrix(-0.46948701,0.46948701,-0.24339797,-0.24339797,39.115269,6.2496057)"
         d="m 42.124553,10.601103 c -0.262482,0.454632 -12.861624,0.454632 -13.124106,0 -0.262483,-0.454633 6.037089,-11.36581009 6.562053,-11.36581009 0.524964,0 6.824536,10.91117709 6.562053,11.36581009 z"
         inkscape:randomized="0"
         inkscape:rounded="0.04"
         inkscape:flatsided="true"
         sodipodi:arg2="1.5707963"
         sodipodi:arg1="0.52359878"
         sodipodi:r2="3.7886033"
         sodipodi:r1="7.5772066"
         sodipodi:cy="6.8124995"
         sodipodi:cx="35.5625"
         sodipodi:sides="3"
         id="path4023-51"
         style="fill:#ffffff;fill-opacity:1;fill-rule:nonzero;stroke:none"
         sodipodi:type="star" />
      <rect
         transform="matrix(0.70710678,-0.70710678,0.70710678,0.70710678,0,0)"
         y="16.741575"
         x="-1.9896116"
         height="3.5157723"
         width="2.9664328"
         id="rect4021-9-9"
         style="fill:#ffffff;fill-opacity:1;fill-rule:nonzero;stroke:none" />
      <path
         inkscape:transform-center-y="-0.67508876"
         transform="matrix(0.46948701,-0.46948701,0.24339797,0.24339797,-7.4155467,26.692868)"
         d="m 42.124553,10.601103 c -0.262482,0.454632 -12.861624,0.454632 -13.124106,0 -0.262483,-0.454633 6.037089,-11.36581009 6.562053,-11.36581009 0.524964,0 6.824536,10.91117709 6.562053,11.36581009 z"
         inkscape:randomized="0"
         inkscape:rounded="0.04"
         inkscape:flatsided="true"
         sodipodi:arg2="1.5707963"
         sodipodi:arg1="0.52359878"
         sodipodi:r2="3.7886033"
         sodipodi:r1="7.5772066"
         sodipodi:cy="6.8124995"
         sodipodi:cx="35.5625"
         sodipodi:sides="3"
         id="path4023-5-7"
         style="fill:#ffffff;fill-opacity:1;fill-rule:nonzero;stroke:none"
         sodipodi:type="star" />
      <path
         sodipodi:nodetypes="ssasssssass"
         inkscape:connector-curvature="0"
         id="rect3975-2"
         d="m 10.103906,22.255632 c 0.36749,0.367489 0.963845,0.367489 1.331334,0 0,0 0.532685,-0.67628 0.893549,-0.89355 0.419278,-0.25244 1.016622,-0.04511 1.403298,-0.431785 l 7.634179,-7.634178 c 0.634296,-0.634296 0.634296,-1.668552 0,-2.302847 -0.634294,-0.634295 -1.668551,-0.634295 -2.302846,0 l -7.63418,7.634178 c -0.386677,0.386676 -0.179345,0.984019 -0.431785,1.403298 -0.21727,0.360864 -0.893549,0.89355 -0.893549,0.89355 -0.3674874,0.367488 -0.3674874,0.963844 0,1.331334 z"
         style="fill:#ffffff;fill-opacity:1;fill-rule:nonzero;stroke:none" />
      <path
         transform="matrix(-0.65944569,0,0,-0.65944569,33.345323,20.967007)"
         d="m 22.875,13.8125 c 0,1.691372 -1.371128,3.0625 -3.0625,3.0625 -1.691372,0 -3.0625,-1.371128 -3.0625,-3.0625 0,-1.691372 1.371128,-3.0625 3.0625,-3.0625 1.691372,0 3.0625,1.371128 3.0625,3.0625 z"
         sodipodi:ry="3.0625"
         sodipodi:rx="3.0625"
         sodipodi:cy="13.8125"
         sodipodi:cx="19.8125"
         id="path4274-1"
         style="fill:#ffffff;fill-opacity:1;fill-rule:nonzero;stroke:#f44336;stroke-width:1.51642513;stroke-miterlimit:4;stroke-opacity:1;stroke-dasharray:none"
         sodipodi:type="arc" />
      <path
         style="fill:#ffffff;fill-opacity:1;fill-rule:nonzero;stroke:none"
         d="m 10.103906,22.255632 c 0.36749,0.367489 0.963845,0.367489 1.331334,0 0,0 0.532685,-0.67628 0.893549,-0.89355 0.419278,-0.25244 1.016622,-0.04511 1.403298,-0.431785 l 7.634179,-7.634178 c 0.634296,-0.634296 0.634296,-1.668552 0,-2.302847 -0.634294,-0.634295 -1.668551,-0.634295 -2.302846,0 l -7.63418,7.634178 c -0.386677,0.386676 -0.179345,0.984019 -0.431785,1.403298 -0.21727,0.360864 -0.893549,0.89355 -0.893549,0.89355 -0.3674874,0.367488 -0.3674874,0.963844 0,1.331334 z"
         id="path3076"
         inkscape:connector-curvature="0"
         sodipodi:nodetypes="ssasssssass" />
      <path
         sodipodi:type="arc"
         style="fill:#ffffff;fill-opacity:1;fill-rule:nonzero;stroke:#f44336;stroke-width:1.51642513;stroke-miterlimit:4;stroke-opacity:1;stroke-dasharray:none"
         id="path3078"
         sodipodi:cx="19.8125"
         sodipodi:cy="13.8125"
         sodipodi:rx="3.0625"
         sodipodi:ry="3.0625"
         d="m 22.875,13.8125 c 0,1.691372 -1.371128,3.0625 -3.0625,3.0625 -1.691372,0 -3.0625,-1.371128 -3.0625,-3.0625 0,-1.691372 1.371128,-3.0625 3.0625,-3.0625 1.691372,0 3.0625,1.371128 3.0625,3.0625 z"
         transform="matrix(-0.65944569,0,0,-0.65944569,33.345323,20.967007)" />
      <path
         sodipodi:nodetypes="ssasssssass"
         inkscape:connector-curvature="0"
         id="path3085"
         d="m 10.103906,22.255632 c 0.36749,0.367489 0.963845,0.367489 1.331334,0 0,0 0.532685,-0.67628 0.893549,-0.89355 0.419278,-0.25244 1.016622,-0.04511 1.403298,-0.431785 l 7.634179,-7.634178 c 0.634296,-0.634296 0.634296,-1.668552 0,-2.302847 -0.634294,-0.634295 -1.668551,-0.634295 -2.302846,0 l -7.63418,7.634178 c -0.386677,0.386676 -0.179345,0.984019 -0.431785,1.403298 -0.21727,0.360864 -0.893549,0.89355 -0.893549,0.89355 -0.3674874,0.367488 -0.3674874,0.963844 0,1.331334 z"
         style="fill:#ffffff;fill-opacity:1;fill-rule:nonzero;stroke:none" />
      <path
         transform="matrix(-0.65944569,0,0,-0.65944569,33.345323,20.967007)"
         d="m 22.875,13.8125 c 0,1.691372 -1.371128,3.0625 -3.0625,3.0625 -1.691372,0 -3.0625,-1.371128 -3.0625,-3.0625 0,-1.691372 1.371128,-3.0625 3.0625,-3.0625 1.691372,0 3.0625,1.371128 3.0625,3.0625 z"
         sodipodi:ry="3.0625"
         sodipodi:rx="3.0625"
         sodipodi:cy="13.8125"
         sodipodi:cx="19.8125"
         id="path3087"
         style="fill:#ffffff;fill-opacity:1;fill-rule:nonzero;stroke:#f44336;stroke-width:1.51642513;stroke-miterlimit:4;stroke-opacity:1;stroke-dasharray:none"
         sodipodi:type="arc" />
    </g>
    <g
       id="g4493"
       transform="translate(-0.17946625,0.09494168)">
      <path
         transform="matrix(1.0188944,0,0,1.0188944,88.248176,-3.5493483)"
         d="M 35.875,19.241072 C 35.875,26.287633 30.162633,32 23.116072,32 16.06951,32 10.357143,26.287633 10.357143,19.241072 c 0,-7.046562 5.712367,-12.7589286 12.758929,-12.7589286 7.046561,0 12.758928,5.7123666 12.758928,12.7589286 z"
         sodipodi:ry="12.758928"
         sodipodi:rx="12.758928"
         sodipodi:cy="19.241072"
         sodipodi:cx="23.116072"
         id="path3016-5-926"
         style="fill:#f44336;fill-opacity:1;fill-rule:nonzero;stroke:#000000;stroke-width:0;stroke-linecap:butt;stroke-linejoin:miter;stroke-miterlimit:4;stroke-opacity:1;stroke-dasharray:none;stroke-dashoffset:0;display:inline"
         sodipodi:type="arc" />
      <path
         style="fill:none;stroke:#ffffff;stroke-width:3.22909164;stroke-linecap:round;stroke-miterlimit:4;stroke-opacity:1"
         d="m 118.08855,10.568177 c -0.0243,0.11091 -0.0498,0.221616 -0.0767,0.332046 -0.0269,0.110422 -0.0552,0.22059 -0.0849,0.33047 -0.0296,0.109863 -0.0606,0.219462 -0.0929,0.328739 -0.0323,0.109276 -0.066,0.218241 -0.10104,0.326867 -0.0351,0.108626 -0.0715,0.216901 -0.10918,0.324815 -0.0377,0.107926 -0.0767,0.215463 -0.1173,0.322621 -0.0404,0.107162 -0.0823,0.213921 -0.12531,0.320266 -0.0432,0.106349 -0.0876,0.212273 -0.13341,0.317754 -0.0459,0.105486 -0.093,0.21052 -0.14151,0.315082 -0.0486,0.10456 -0.0984,0.208668 -0.14959,0.312263 -0.0512,0.103591 -0.1037,0.206701 -0.15767,0.309275 -0.0538,0.10258 -0.10918,0.204637 -0.16576,0.306135 -0.0566,0.101498 -0.11451,0.202459 -0.17384,0.302847 -0.0593,0.10038 -0.11998,0.200182 -0.18193,0.299382 -0.062,0.09921 -0.12532,0.197806 -0.19001,0.295775 -0.0647,0.09797 -0.13078,0.195324 -0.1981,0.292007 -0.0673,0.0967 -0.13614,0.192729 -0.2062,0.288082 -0.0701,0.09535 -0.14152,0.190035 -0.21428,0.284003 -0.0727,0.09398 -0.14689,0.187235 -0.22236,0.279759 -0.0755,0.09253 -0.15228,0.184329 -0.23044,0.275369 -0.0781,0.091 -0.15768,0.181316 -0.23855,0.270808 -0.0809,0.08951 -0.16307,0.178205 -0.2466,0.266105 -0.0836,0.08787 -0.16847,0.174974 -0.25473,0.261234 l 0,8.8e-5 c -0.0863,0.08625 -0.1733,0.171176 -0.26122,0.254714 -0.0879,0.08354 -0.17663,0.165738 -0.26611,0.24661 -0.0894,0.08089 -0.17977,0.160379 -0.2708,0.238543 -0.091,0.07816 -0.18285,0.154976 -0.27536,0.230446 -0.0925,0.07546 -0.18581,0.149588 -0.27977,0.222364 -0.094,0.07278 -0.18864,0.144207 -0.28399,0.214281 -0.0953,0.07006 -0.1914,0.138805 -0.28809,0.206193 -0.0966,0.06737 -0.19404,0.133416 -0.292,0.19811 -0.098,0.06469 -0.19658,0.128021 -0.29577,0.190013 -0.0992,0.062 -0.199,0.122641 -0.29939,0.181932 -0.10037,0.05929 -0.20134,0.117238 -0.30285,0.173849 -0.10145,0.0566 -0.20355,0.11185 -0.30613,0.165753 -0.10265,0.05391 -0.20567,0.106476 -0.30927,0.157676 -0.10358,0.05122 -0.20771,0.101073 -0.31227,0.149591 -0.10452,0.04851 -0.20959,0.09569 -0.31508,0.141501 -0.10546,0.04582 -0.21141,0.09031 -0.31776,0.133421 -0.10638,0.04313 -0.2131,0.0849 -0.32027,0.125333 -0.10717,0.04043 -0.2147,0.07951 -0.32262,0.11724 -0.10785,0.03774 -0.21619,0.07411 -0.32481,0.109164 -0.10864,0.03504 -0.21759,0.06873 -0.32686,0.101072 -0.10931,0.03234 -0.21887,0.06333 -0.32874,0.09298 -0.10985,0.02966 -0.22005,0.05795 -0.33048,0.0849 -0.11037,0.02696 -0.22111,0.05256 -0.33205,0.07682 -0.11091,0.02428 -0.22207,0.04716 -0.33344,0.06873"
         id="path4534"
         inkscape:connector-curvature="0"
         sodipodi:nodetypes="cssssssssssssssssssssssscsssssssssssssssssssssssc" />
      <path
         transform="matrix(-0.65944569,0,0,-0.65944569,131.05514,20.186873)"
         d="m 22.875,13.8125 c 0,1.691372 -1.371128,3.0625 -3.0625,3.0625 -1.691372,0 -3.0625,-1.371128 -3.0625,-3.0625 0,-1.691372 1.371128,-3.0625 3.0625,-3.0625 1.691372,0 3.0625,1.371128 3.0625,3.0625 z"
         sodipodi:ry="3.0625"
         sodipodi:rx="3.0625"
         sodipodi:cy="13.8125"
         sodipodi:cx="19.8125"
         id="path4274-1-8"
         style="fill:#ffffff;fill-opacity:1;fill-rule:nonzero;stroke:#f44336;stroke-width:1.51642513;stroke-miterlimit:4;stroke-opacity:1;stroke-dasharray:none"
         sodipodi:type="arc" />
      <path
         sodipodi:type="arc"
         style="fill:#ffffff;fill-opacity:1;fill-rule:nonzero;stroke:#f44336;stroke-width:1.51642513;stroke-miterlimit:4;stroke-opacity:1;stroke-dasharray:none"
         id="path3080"
         sodipodi:cx="19.8125"
         sodipodi:cy="13.8125"
         sodipodi:rx="3.0625"
         sodipodi:ry="3.0625"
         d="m 22.875,13.8125 c 0,1.691372 -1.371128,3.0625 -3.0625,3.0625 -1.691372,0 -3.0625,-1.371128 -3.0625,-3.0625 0,-1.691372 1.371128,-3.0625 3.0625,-3.0625 1.691372,0 3.0625,1.371128 3.0625,3.0625 z"
         transform="matrix(-0.65944569,0,0,-0.65944569,131.05514,20.186873)" />
      <path
         transform="matrix(-0.65944569,0,0,-0.65944569,131.05514,20.186873)"
         d="m 22.875,13.8125 c 0,1.691372 -1.371128,3.0625 -3.0625,3.0625 -1.691372,0 -3.0625,-1.371128 -3.0625,-3.0625 0,-1.691372 1.371128,-3.0625 3.0625,-3.0625 1.691372,0 3.0625,1.371128 3.0625,3.0625 z"
         sodipodi:ry="3.0625"
         sodipodi:rx="3.0625"
         sodipodi:cy="13.8125"
         sodipodi:cx="19.8125"
         id="path3089"
         style="fill:#ffffff;fill-opacity:1;fill-rule:nonzero;stroke:#f44336;stroke-width:1.51642513;stroke-miterlimit:4;stroke-opacity:1;stroke-dasharray:none"
         sodipodi:type="arc" />
    </g>
    <g
       id="g4411"
       transform="translate(-0.03827748,0.228713)">
      <path
         transform="matrix(1.0188944,0,0,1.0188944,24.248176,-67.549368)"
         d="M 35.875,19.241072 C 35.875,26.287633 30.162633,32 23.116072,32 16.06951,32 10.357143,26.287633 10.357143,19.241072 c 0,-7.046562 5.712367,-12.7589286 12.758929,-12.7589286 7.046561,0 12.758928,5.7123666 12.758928,12.7589286 z"
         sodipodi:ry="12.758928"
         sodipodi:rx="12.758928"
         sodipodi:cy="19.241072"
         sodipodi:cx="23.116072"
         id="path3016-5-0"
         style="fill:#4caf50;fill-opacity:1;fill-rule:nonzero;stroke:#000000;stroke-width:0;stroke-linecap:butt;stroke-linejoin:miter;stroke-miterlimit:4;stroke-opacity:1;stroke-dasharray:none;stroke-dashoffset:0;display:inline"
         sodipodi:type="arc" />
      <path
         sodipodi:nodetypes="ssasssssass"
         inkscape:connector-curvature="0"
         id="rect3975"
         d="m 53.467816,-53.418052 c -0.36749,-0.367489 -0.963845,-0.367489 -1.331334,0 0,0 -2.917266,3.703668 -4.893549,4.89355 -0.419278,0.252439 -1.016621,0.04511 -1.403298,0.431785 l -3.634179,3.634179 c -0.634296,0.634296 -0.634296,1.668552 0,2.302847 0.634294,0.634295 1.668551,0.634295 2.302846,0 l 3.63418,-3.634179 c 0.386676,-0.386677 0.179345,-0.98402 0.431785,-1.403298 1.189882,-1.976283 4.893549,-4.89355 4.893549,-4.89355 0.367488,-0.367488 0.367488,-0.963844 0,-1.331334 z"
         style="fill:#ffffff;fill-opacity:1;fill-rule:nonzero;stroke:none" />
      <path
         transform="matrix(0.4914431,0,0,0.4914431,43.86745,-60.308891)"
         d="m 22.875,13.8125 c 0,1.691372 -1.371128,3.0625 -3.0625,3.0625 -1.691372,0 -3.0625,-1.371128 -3.0625,-3.0625 0,-1.691372 1.371128,-3.0625 3.0625,-3.0625 1.691372,0 3.0625,1.371128 3.0625,3.0625 z"
         sodipodi:ry="3.0625"
         sodipodi:rx="3.0625"
         sodipodi:cy="13.8125"
         sodipodi:cx="19.8125"
         id="path4274"
         style="fill:#ffffff;fill-opacity:1;fill-rule:nonzero;stroke:#4caf50;stroke-width:1.31536162;stroke-miterlimit:4;stroke-opacity:1;stroke-dasharray:none"
         sodipodi:type="arc" />
      <rect
         transform="matrix(0.70710678,-0.70710678,0.70710678,0.70710678,0,0)"
         y="5.0605383"
         x="67.513611"
         height="3.5157723"
         width="2.9664328"
         id="rect4021"
         style="fill:#ffffff;fill-opacity:1;fill-rule:nonzero;stroke:none" />
      <path
         inkscape:transform-center-y="-0.67508876"
         transform="matrix(0.46948701,-0.46948701,0.24339797,0.24339797,33.470913,-30.713072)"
         d="m 42.124553,10.601103 c -0.262482,0.454632 -12.861624,0.454632 -13.124106,0 -0.262483,-0.454633 6.037089,-11.36581009 6.562053,-11.36581009 0.524964,0 6.824536,10.91117709 6.562053,11.36581009 z"
         inkscape:randomized="0"
         inkscape:rounded="0.04"
         inkscape:flatsided="true"
         sodipodi:arg2="1.5707963"
         sodipodi:arg1="0.52359878"
         sodipodi:r2="3.7886033"
         sodipodi:r1="7.5772066"
         sodipodi:cy="6.8124995"
         sodipodi:cx="35.5625"
         sodipodi:sides="3"
         id="path4023"
         style="fill:#ffffff;fill-opacity:1;fill-rule:nonzero;stroke:none"
         sodipodi:type="star" />
      <rect
         transform="matrix(-0.70710678,0.70710678,-0.70710678,-0.70710678,0,0)"
         y="5.042058"
         x="-70.346016"
         height="3.5157723"
         width="2.9664328"
         id="rect4021-9"
         style="fill:#ffffff;fill-opacity:1;fill-rule:nonzero;stroke:none" />
      <path
         inkscape:transform-center-y="-0.67508876"
         transform="matrix(-0.46948701,0.46948701,-0.24339797,-0.24339797,64.023629,-66.755334)"
         d="m 42.124553,10.601103 c -0.262482,0.454632 -12.861624,0.454632 -13.124106,0 -0.262483,-0.454633 6.037089,-11.36581009 6.562053,-11.36581009 0.524964,0 6.824536,10.91117709 6.562053,11.36581009 z"
         inkscape:randomized="0"
         inkscape:rounded="0.04"
         inkscape:flatsided="true"
         sodipodi:arg2="1.5707963"
         sodipodi:arg1="0.52359878"
         sodipodi:r2="3.7886033"
         sodipodi:r1="7.5772066"
         sodipodi:cy="6.8124995"
         sodipodi:cx="35.5625"
         sodipodi:sides="3"
         id="path4023-5"
         style="fill:#ffffff;fill-opacity:1;fill-rule:nonzero;stroke:none"
         sodipodi:type="star" />
    </g>
    <g
       id="g4500"
       transform="translate(-0.40024616,-0.19496392)">
      <path
         transform="matrix(1.0188944,0,0,1.0188944,120.39835,-3.2594427)"
         d="M 35.875,19.241072 C 35.875,26.287633 30.162633,32 23.116072,32 16.06951,32 10.357143,26.287633 10.357143,19.241072 c 0,-7.046562 5.712367,-12.7589286 12.758929,-12.7589286 7.046561,0 12.758928,5.7123666 12.758928,12.7589286 z"
         sodipodi:ry="12.758928"
         sodipodi:rx="12.758928"
         sodipodi:cy="19.241072"
         sodipodi:cx="23.116072"
         id="path3016-5-05-1"
         style="fill:#f44336;fill-opacity:1;fill-rule:nonzero;stroke:#000000;stroke-width:0;stroke-linecap:butt;stroke-linejoin:miter;stroke-miterlimit:4;stroke-opacity:1;stroke-dasharray:none;stroke-dashoffset:0;display:inline"
         sodipodi:type="arc" />
      <g
         transform="matrix(0.43549276,-0.87038625,0.87038625,0.43549276,66.134856,134.40602)"
         id="g4160">
        <path
           style="fill:none;stroke:#ffffff;stroke-width:2.95160818;stroke-linecap:round;stroke-linejoin:round;stroke-miterlimit:4;stroke-opacity:1;stroke-dasharray:none"
           d="m 136.4288,14.323857 6.91935,0 0,5.534266 7.99239,0"
           id="path3372"
           inkscape:connector-curvature="0"
           sodipodi:nodetypes="cccc" />
        <path
           sodipodi:type="arc"
           style="fill:#ffffff;fill-opacity:1;fill-rule:nonzero;stroke:#f44336;stroke-width:1.51642513;stroke-miterlimit:4;stroke-opacity:1;stroke-dasharray:none;display:inline"
           id="path3089-1"
           sodipodi:cx="19.8125"
           sodipodi:cy="13.8125"
           sodipodi:rx="3.0625"
           sodipodi:ry="3.0625"
           d="m 22.875,13.8125 c 0,1.691372 -1.371128,3.0625 -3.0625,3.0625 -1.691372,0 -3.0625,-1.371128 -3.0625,-3.0625 0,-1.691372 1.371128,-3.0625 3.0625,-3.0625 1.691372,0 3.0625,1.371128 3.0625,3.0625 z"
           transform="matrix(-0.65944569,0,0,-0.65944569,164.76318,28.952343)" />
      </g>
    </g>
    <g
       id="g4506"
       transform="translate(-0.58927,-0.00906372)">
      <path
         transform="matrix(1.0188944,0,0,1.0188944,152.51676,-3.4453429)"
         d="M 35.875,19.241072 C 35.875,26.287633 30.162633,32 23.116072,32 16.06951,32 10.357143,26.287633 10.357143,19.241072 c 0,-7.046562 5.712367,-12.7589286 12.758929,-12.7589286 7.046561,0 12.758928,5.7123666 12.758928,12.7589286 z"
         sodipodi:ry="12.758928"
         sodipodi:rx="12.758928"
         sodipodi:cy="19.241072"
         sodipodi:cx="23.116072"
         id="path3016-5-05-1-9"
         style="fill:#f44336;fill-opacity:1;fill-rule:nonzero;stroke:#000000;stroke-width:0;stroke-linecap:butt;stroke-linejoin:miter;stroke-miterlimit:4;stroke-opacity:1;stroke-dasharray:none;stroke-dashoffset:0;display:inline"
         sodipodi:type="arc" />
      <g
         style="fill:#ffffff"
         transform="matrix(0.22191023,0,0,0.22191023,112.19245,23.928176)"
         id="g4067">
        <path
           inkscape:connector-curvature="0"
           id="path4092"
           d="m 269.60461,0.89968406 c -1.03449,-0.45507 -2.75865,-2.30129996 -3.17719,-3.40212996 -0.76735,-2.0183 -0.48412,-2.82394 5.11526,-14.5497501 6.76565,-14.16813 7.42157,-16.21183 7.75953,-24.17686 l 0.1885,-4.44272 2.70965,0 2.70965,0 -0.18279,4.89452 c -0.21591,5.78123 -0.99714,9.84533 -2.77915,14.45767 -0.18752,0.48534 0.10526,0.5271 3.69596,0.5271 l 3.89961,0 4.74935,10.01494 c 2.61214,5.50822 4.9462,10.3276101 5.1868,10.7097501 0.35023,0.55626 0.65796,0.67638 1.54333,0.6024 0.87474,-0.0731 1.16231,-0.25395 1.37594,-0.86536 0.23022,-0.65892 -0.39825,-2.17323 -4.25944,-10.2632101 -6.53882,-13.70015 -7.46885,-16.71966 -7.80304,-25.33389 l -0.18404,-4.74392 2.7111,0 2.7111,0 0.17544,4.14152 c 0.34675,8.18559 1.10129,10.54394 7.82991,24.47261 5.05695,10.4682001 5.16559,10.7342101 5.17584,12.6725201 0.012,2.26543 -0.66085,3.56363996 -2.50029,4.82431996 l -1.05906,0.72584004 -17.34138,0.0673 c -13.8736,0.0539 -17.5232,-0.0127 -18.25059,-0.33265004 z m 11.5711,-52.07820006 c -1.45313,-0.97618 -2.04329,-2.74179 -1.44332,-4.31814 0.6529,-1.71545 2.13377,-2.61484 4.0164,-2.43932 1.18578,0.11056 1.65675,0.32749 2.31816,1.06773 3.01774,3.37744 -1.1377,8.21125 -4.89124,5.68973 z m 11.0246,-4.39396 c -3.20766,-1.9922 -3.8412,-5.70563 -1.41154,-8.27357 1.1966,-1.2647 2.24581,-1.70502 4.06286,-1.70502 2.5423,0 4.72921,1.859 5.21156,4.43013 0.398,2.12152 -1.09069,4.86353 -3.09522,5.70107 -1.41334,0.59053 -3.68837,0.51771 -4.76766,-0.15261 z m -14.23451,-6.66375 c -1.54549,-0.94229 -2.23483,-2.28562 -2.1016,-4.09544 0.4311,-5.85641 8.95443,-5.68679 8.95443,0.1782 0,3.50485 -3.88597,5.72616 -6.85283,3.91724 z m 10.0261,-8.21601 c -0.83309,-0.83309 -1.06261,-1.30333 -1.06261,-2.17706 0,-0.87373 0.22952,-1.34397 1.06261,-2.17706 0.96064,-0.96064 1.18185,-1.04663 2.30498,-0.89598 1.79453,0.2407 2.80704,1.34915 2.80704,3.07304 0,1.72389 -1.01251,2.83234 -2.80704,3.07304 -1.12313,0.15064 -1.34434,0.0647 -2.30498,-0.89598 z"
           style="fill:#ffffff" />
      </g>
    </g>
    <g
       id="g4529"
       transform="translate(-0.32506616,0.046044)">
      <path
         transform="matrix(1.0188944,0,0,1.0188944,120.32317,28.432669)"
         d="M 35.875,19.241072 C 35.875,26.287633 30.162633,32 23.116072,32 16.06951,32 10.357143,26.287633 10.357143,19.241072 c 0,-7.046562 5.712367,-12.7589286 12.758929,-12.7589286 7.046561,0 12.758928,5.7123666 12.758928,12.7589286 z"
         sodipodi:ry="12.758928"
         sodipodi:rx="12.758928"
         sodipodi:cy="19.241072"
         sodipodi:cx="23.116072"
         id="path3016-5-1-9"
         style="fill:#2196f3;fill-opacity:1;fill-rule:nonzero;stroke:#000000;stroke-width:0;stroke-linecap:butt;stroke-linejoin:miter;stroke-miterlimit:4;stroke-opacity:1;stroke-dasharray:none;stroke-dashoffset:0;display:inline"
         sodipodi:type="arc" />
      <path
         style="fill:#ffffff;display:inline"
         id="path4-5"
         d="m 147.1036,41.79738 3.50932,3.502231 c 0.55298,0.560072 0.55298,1.453355 0,2.013428 l -6.51529,6.515282 c -1.10596,1.105969 -2.89962,1.105969 -4.01267,0 l -2.50261,-2.502606 c -0.55298,-0.560072 -0.55298,-1.453353 0,-2.013427 l 7.51491,-7.514908 c 0.56007,-0.552983 1.45335,-0.552983 2.00634,0 m -8.52163,8.521621 2.5097,2.502607 c 0.55298,0.560073 1.44626,0.560073 2.00634,0 l 2.5026,-2.502607 -3.50932,-3.509319 -3.50932,3.509319 z"
         inkscape:connector-curvature="0" />
    </g>
    <g
       id="g4533"
       transform="translate(-0.26968,0)">
      <path
         transform="matrix(1.0188944,0,0,1.0188944,152.19717,28.478713)"
         d="M 35.875,19.241072 C 35.875,26.287633 30.162633,32 23.116072,32 16.06951,32 10.357143,26.287633 10.357143,19.241072 c 0,-7.046562 5.712367,-12.7589286 12.758929,-12.7589286 7.046561,0 12.758928,5.7123666 12.758928,12.7589286 z"
         sodipodi:ry="12.758928"
         sodipodi:rx="12.758928"
         sodipodi:cy="19.241072"
         sodipodi:cx="23.116072"
         id="path3016-5-1-9-9"
         style="fill:#2196f3;fill-opacity:1;fill-rule:nonzero;stroke:#000000;stroke-width:0;stroke-linecap:butt;stroke-linejoin:miter;stroke-miterlimit:4;stroke-opacity:1;stroke-dasharray:none;stroke-dashoffset:0;display:inline"
         sodipodi:type="arc" />
      <path
         style="fill:#ffffff"
         id="path4-42"
         d="m 175.83388,46.543288 a 1.9071986,1.9071986 0 0 0 -1.9072,1.907199 1.9071986,1.9071986 0 0 0 1.9072,1.907199 1.9071986,1.9071986 0 0 0 1.9072,-1.907199 1.9071986,1.9071986 0 0 0 -1.9072,-1.907199 m 0,5.085863 a 3.1786644,3.1786644 0 0 1 -3.17866,-3.178664 3.1786644,3.1786644 0 0 1 3.17866,-3.178664 3.1786644,3.1786644 0 0 1 3.17866,3.178664 3.1786644,3.1786644 0 0 1 -3.17866,3.178664 m 0,-7.946661 c -3.17866,0 -5.89324,1.97713 -6.99306,4.767997 1.09982,2.790867 3.8144,4.767997 6.99306,4.767997 3.17866,0 5.89324,-1.97713 6.99306,-4.767997 -1.09982,-2.790867 -3.8144,-4.767997 -6.99306,-4.767997 z"
         inkscape:connector-curvature="0" />
    </g>
    <g
       id="g4458"
       transform="translate(-0.19906616,0.21708865)">
      <path
         transform="matrix(1.0188944,0,0,1.0188944,120.19717,-35.60462)"
         d="M 35.875,19.241072 C 35.875,26.287633 30.162633,32 23.116072,32 16.06951,32 10.357143,26.287633 10.357143,19.241072 c 0,-7.046562 5.712367,-12.7589286 12.758929,-12.7589286 7.046561,0 12.758928,5.7123666 12.758928,12.7589286 z"
         sodipodi:ry="12.758928"
         sodipodi:rx="12.758928"
         sodipodi:cy="19.241072"
         sodipodi:cx="23.116072"
         id="path3016-5-05-1-9-2"
         style="fill:#f44336;fill-opacity:1;fill-rule:nonzero;stroke:#000000;stroke-width:0;stroke-linecap:butt;stroke-linejoin:miter;stroke-miterlimit:4;stroke-opacity:1;stroke-dasharray:none;stroke-dashoffset:0;display:inline"
         sodipodi:type="arc" />
      <path
         style="fill:#ffffff"
         sodipodi:nodetypes="cccccssssssscccccccccccccccccc"
         inkscape:connector-curvature="0"
         id="path4-7"
         d="m 146.58079,-13.194444 -5.61111,0 0,-5.611112 5.61111,0 m 0.3507,-1.402778 -6.3125,0 c -0.55088,0 -1.05209,0.501214 -1.05209,1.052084 l 0,6.3125 c 0,0.55087 0.50121,1.052084 1.05209,1.052084 l 6.3125,0 c 0.55086,0 1.05207,-0.501214 1.05207,-1.052084 l 0,-6.3125 c 0,-0.55087 -0.50121,-1.052084 -1.05207,-1.052084 m 1.72824,7.719997 1.40278,0 0,-7.013888 -1.40278,0 m 2.10417,1.402777 0,4.208334 1.40277,0 0,-4.208334 m -14.72916,5.611111 1.40278,0 0,-7.013888 -1.40278,0 m -2.10416,5.611111 1.40277,0 0,-4.208334 -1.40277,0 z" />
    </g>
    <g
       id="g4462"
       transform="translate(-0.47141,0.23117065)">
      <path
         transform="matrix(1.0188944,0,0,1.0188944,152.3989,-35.618702)"
         d="M 35.875,19.241072 C 35.875,26.287633 30.162633,32 23.116072,32 16.06951,32 10.357143,26.287633 10.357143,19.241072 c 0,-7.046562 5.712367,-12.7589286 12.758929,-12.7589286 7.046561,0 12.758928,5.7123666 12.758928,12.7589286 z"
         sodipodi:ry="12.758928"
         sodipodi:rx="12.758928"
         sodipodi:cy="19.241072"
         sodipodi:cx="23.116072"
         id="path3016-5-05-1-9-2-6"
         style="fill:#f44336;fill-opacity:1;fill-rule:nonzero;stroke:#000000;stroke-width:0;stroke-linecap:butt;stroke-linejoin:miter;stroke-miterlimit:4;stroke-opacity:1;stroke-dasharray:none;stroke-dashoffset:0;display:inline"
         sodipodi:type="arc" />
      <path
         style="fill:#ffffff"
         id="path4-6"
         d="m 177.33269,-16.344413 a 1.5987366,1.5987366 0 0 1 -0.58519,2.183914 1.5987366,1.5987366 0 0 1 -2.1839,-0.585178 1.5987366,1.5987366 0 0 1 0.58517,-2.183914 1.5987366,1.5987366 0 0 1 2.18392,0.585178 m -8.30728,4.796209 c -0.77938,-1.349934 -1.12313,-2.840616 -1.06314,-4.287488 l 4.78432,0.293004 c 0.005,0.551257 0.14469,1.097943 0.43246,1.59638 0.28777,0.498437 0.69108,0.893243 1.16627,1.172713 l -2.13841,4.2898448 c -1.28302,-0.6714845 -2.40211,-1.7145208 -3.1815,-3.0644538 m 2.92589,-10.919574 c 2.86602,-1.654692 6.32971,-1.346885 8.82483,0.544703 l -2.97158,3.774006 c -0.99462,-0.699539 -2.33366,-0.812557 -3.45515,-0.165069 l -2.3981,-4.15364 m 5.59558,9.691826 c 1.12149,-0.647489 1.69313,-1.863634 1.58462,-3.07477 l 4.75417,-0.686468 c 0.39061,3.106626 -1.07467,6.260186 -3.94069,7.9148776 l -2.3981,-4.1536396 z"
         inkscape:connector-curvature="0" />
    </g>
    <g
       id="g4431"
       transform="translate(-0.36572616,0.367298)">
      <path
         transform="matrix(1.0188944,0,0,1.0188944,120.36383,-67.687953)"
         d="M 35.875,19.241072 C 35.875,26.287633 30.162633,32 23.116072,32 16.06951,32 10.357143,26.287633 10.357143,19.241072 c 0,-7.046562 5.712367,-12.7589286 12.758929,-12.7589286 7.046561,0 12.758928,5.7123666 12.758928,12.7589286 z"
         sodipodi:ry="12.758928"
         sodipodi:rx="12.758928"
         sodipodi:cy="19.241072"
         sodipodi:cx="23.116072"
         id="path3016-5-05-1-9-2-0"
         style="fill:#f44336;fill-opacity:1;fill-rule:nonzero;stroke:#000000;stroke-width:0;stroke-linecap:butt;stroke-linejoin:miter;stroke-miterlimit:4;stroke-opacity:1;stroke-dasharray:none;stroke-dashoffset:0;display:inline"
         sodipodi:type="arc" />
      <path
         style="fill:#ffffff"
         id="path4-8"
         d="m 145.32121,-50.541281 a 1.0534062,1.0534062 0 0 0 -1.0534,1.053406 1.0534062,1.0534062 0 0 0 1.0534,1.053407 1.0534062,1.0534062 0 0 0 1.05341,-1.053407 1.0534062,1.0534062 0 0 0 -1.05341,-1.053406 m 0,2.809083 a 1.0534062,1.0534062 0 0 0 -1.0534,1.053407 1.0534062,1.0534062 0 0 0 1.0534,1.053406 1.0534062,1.0534062 0 0 0 1.05341,-1.053406 1.0534062,1.0534062 0 0 0 -1.05341,-1.053407 m -2.80908,3.160219 a 0.70227083,0.70227083 0 0 0 -0.70227,0.702271 0.70227083,0.70227083 0 0 0 0.70227,0.702271 0.70227083,0.70227083 0 0 0 0.70227,-0.702271 0.70227083,0.70227083 0 0 0 -0.70227,-0.702271 m 0,-5.969302 a 1.0534062,1.0534062 0 0 0 -1.05341,1.053406 1.0534062,1.0534062 0 0 0 1.05341,1.053407 1.0534062,1.0534062 0 0 0 1.0534,-1.053407 1.0534062,1.0534062 0 0 0 -1.0534,-1.053406 m 2.80908,8.42725 a 0.35113541,0.35113541 0 0 0 -0.35113,0.351135 0.35113541,0.35113541 0 0 0 0.35113,0.351136 0.35113541,0.35113541 0 0 0 0.35114,-0.351136 0.35113541,0.35113541 0 0 0 -0.35114,-0.351135 m 0,-2.457948 a 0.70227083,0.70227083 0 0 0 -0.70227,0.702271 0.70227083,0.70227083 0 0 0 0.70227,0.702271 0.70227083,0.70227083 0 0 0 0.70227,-0.702271 0.70227083,0.70227083 0 0 0 -0.70227,-0.702271 m 4.9159,-2.457948 a 0.35113541,0.35113541 0 0 0 -0.35114,0.351136 0.35113541,0.35113541 0 0 0 0.35114,0.351135 0.35113541,0.35113541 0 0 0 0.35113,-0.351135 0.35113541,0.35113541 0 0 0 -0.35113,-0.351136 m -2.10682,-5.969302 a 0.70227083,0.70227083 0 0 0 -0.70227,0.702271 0.70227083,0.70227083 0 0 0 0.70227,0.702271 0.70227083,0.70227083 0 0 0 0.70228,-0.702271 0.70227083,0.70227083 0 0 0 -0.70228,-0.702271 m 0,2.809084 a 0.70227083,0.70227083 0 0 0 -0.70227,0.70227 0.70227083,0.70227083 0 0 0 0.70227,0.702271 0.70227083,0.70227083 0 0 0 0.70228,-0.702271 0.70227083,0.70227083 0 0 0 -0.70228,-0.70227 m 0,5.618166 a 0.70227083,0.70227083 0 0 0 -0.70227,0.702271 0.70227083,0.70227083 0 0 0 0.70227,0.702271 0.70227083,0.70227083 0 0 0 0.70228,-0.702271 0.70227083,0.70227083 0 0 0 -0.70228,-0.702271 m 0,-2.809083 a 0.70227083,0.70227083 0 0 0 -0.70227,0.702271 0.70227083,0.70227083 0 0 0 0.70227,0.70227 0.70227083,0.70227083 0 0 0 0.70228,-0.70227 0.70227083,0.70227083 0 0 0 -0.70228,-0.702271 m -5.61816,-0.351136 a 1.0534062,1.0534062 0 0 0 -1.05341,1.053407 1.0534062,1.0534062 0 0 0 1.05341,1.053406 1.0534062,1.0534062 0 0 0 1.0534,-1.053406 1.0534062,1.0534062 0 0 0 -1.0534,-1.053407 m 0,-3.862489 a 0.70227083,0.70227083 0 0 0 0.70227,-0.702271 0.70227083,0.70227083 0 0 0 -0.70227,-0.702271 0.70227083,0.70227083 0 0 0 -0.70227,0.702271 0.70227083,0.70227083 0 0 0 0.70227,0.702271 m 0,-2.457948 a 0.35113541,0.35113541 0 0 0 0.35113,-0.351135 0.35113541,0.35113541 0 0 0 -0.35113,-0.351136 0.35113541,0.35113541 0 0 0 -0.35114,0.351136 0.35113541,0.35113541 0 0 0 0.35114,0.351135 m 0,11.938604 a 0.35113541,0.35113541 0 0 0 -0.35114,0.351135 0.35113541,0.35113541 0 0 0 0.35114,0.351136 0.35113541,0.35113541 0 0 0 0.35113,-0.351136 0.35113541,0.35113541 0 0 0 -0.35113,-0.351135 m -4.9159,-4.915896 a 0.35113541,0.35113541 0 0 0 -0.35113,0.351136 0.35113541,0.35113541 0 0 0 0.35113,0.351135 0.35113541,0.35113541 0 0 0 0.35114,-0.351135 0.35113541,0.35113541 0 0 0 -0.35114,-0.351136 m 7.72498,-7.022708 a 0.35113541,0.35113541 0 0 0 0.35114,-0.351135 0.35113541,0.35113541 0 0 0 -0.35114,-0.351136 0.35113541,0.35113541 0 0 0 -0.35113,0.351136 0.35113541,0.35113541 0 0 0 0.35113,0.351135 m 0,2.457948 a 0.70227083,0.70227083 0 0 0 0.70227,-0.702271 0.70227083,0.70227083 0 0 0 -0.70227,-0.702271 0.70227083,0.70227083 0 0 0 -0.70227,0.702271 0.70227083,0.70227083 0 0 0 0.70227,0.702271 m 4.9159,2.457948 a 0.35113541,0.35113541 0 0 0 0.35113,-0.351136 0.35113541,0.35113541 0 0 0 -0.35113,-0.351135 0.35113541,0.35113541 0 0 0 -0.35114,0.351135 0.35113541,0.35113541 0 0 0 0.35114,0.351136 m -10.53406,-3.86249 a 0.70227083,0.70227083 0 0 0 -0.70228,0.702271 0.70227083,0.70227083 0 0 0 0.70228,0.702271 0.70227083,0.70227083 0 0 0 0.70227,-0.702271 0.70227083,0.70227083 0 0 0 -0.70227,-0.702271 m -2.10682,3.160219 a 0.35113541,0.35113541 0 0 0 -0.35113,0.351135 0.35113541,0.35113541 0 0 0 0.35113,0.351136 0.35113541,0.35113541 0 0 0 0.35114,-0.351136 0.35113541,0.35113541 0 0 0 -0.35114,-0.351135 m 2.10682,-0.351135 a 0.70227083,0.70227083 0 0 0 -0.70228,0.70227 0.70227083,0.70227083 0 0 0 0.70228,0.702271 0.70227083,0.70227083 0 0 0 0.70227,-0.702271 0.70227083,0.70227083 0 0 0 -0.70227,-0.70227 m 0,5.618166 a 0.70227083,0.70227083 0 0 0 -0.70228,0.702271 0.70227083,0.70227083 0 0 0 0.70228,0.702271 0.70227083,0.70227083 0 0 0 0.70227,-0.702271 0.70227083,0.70227083 0 0 0 -0.70227,-0.702271 m 0,-2.809083 a 0.70227083,0.70227083 0 0 0 -0.70228,0.702271 0.70227083,0.70227083 0 0 0 0.70228,0.70227 0.70227083,0.70227083 0 0 0 0.70227,-0.70227 0.70227083,0.70227083 0 0 0 -0.70227,-0.702271 z"
         inkscape:connector-curvature="0" />
    </g>
    <g
       id="g4435">
      <path
         transform="matrix(1.0188944,0,0,1.0188944,151.92749,-67.320655)"
         d="m 35.875,19.241072 a 12.758928,12.758928 0 1 1 -25.517857,0 12.758928,12.758928 0 1 1 25.517857,0 z"
         sodipodi:ry="12.758928"
         sodipodi:rx="12.758928"
         sodipodi:cy="19.241072"
         sodipodi:cx="23.116072"
         id="path3016-5-05-1-9-2-0-4"
         style="fill:#f44336;fill-opacity:1;fill-rule:nonzero;stroke:#000000;stroke-width:0;stroke-linecap:butt;stroke-linejoin:miter;stroke-miterlimit:4;stroke-opacity:1;stroke-dasharray:none;stroke-dashoffset:0;display:inline"
         sodipodi:type="arc" />
      <path
         style="fill:#ffffff"
         id="path4-1"
         d="m 179.82213,-53.298352 h -2.48103 v 1.240515 h 2.48103 v 2.48103 h 1.24052 v -2.48103 c 0,-0.688486 -0.55823,-1.240515 -1.24052,-1.240515 m 0,9.924119 h -2.48103 v 1.240515 h 2.48103 a 1.2405149,1.2405149 0 0 0 1.24052,-1.240515 v -2.48103 h -1.24052 m -8.6836,0 h -1.24052 v 2.48103 a 1.2405149,1.2405149 0 0 0 1.24052,1.240515 h 2.48103 v -1.240515 h -2.48103 m -1.24052,-8.683604 v 2.48103 h 1.24052 v -2.48103 h 2.48103 v -1.240515 h -2.48103 a 1.2405149,1.2405149 0 0 0 -1.24052,1.240515 z"
         inkscape:connector-curvature="0" />
    </g>
    <g
       id="g4537">
      <path
         transform="matrix(1.0188944,0,0,1.0188944,-7.7195033,60.562047)"
         d="M 35.875,19.241072 C 35.875,26.287633 30.162633,32 23.116072,32 16.06951,32 10.357143,26.287633 10.357143,19.241072 c 0,-7.046562 5.712367,-12.7589286 12.758929,-12.7589286 7.046561,0 12.758928,5.7123666 12.758928,12.7589286 z"
         sodipodi:ry="12.758928"
         sodipodi:rx="12.758928"
         sodipodi:cy="19.241072"
         sodipodi:cx="23.116072"
         id="path3016-5-1-9-9-8"
         style="fill:#2196f3;fill-opacity:1;fill-rule:nonzero;stroke:#000000;stroke-width:0;stroke-linecap:butt;stroke-linejoin:miter;stroke-miterlimit:4;stroke-opacity:1;stroke-dasharray:none;stroke-dashoffset:0;display:inline"
         sodipodi:type="arc" />
      <path
         style="fill:#ffffff;display:inline"
         id="path4-8-0"
         d="m 17.237873,77.708719 a 1.0534062,1.0534062 0 0 0 -1.0534,1.053406 1.0534062,1.0534062 0 0 0 1.0534,1.053407 1.0534062,1.0534062 0 0 0 1.05341,-1.053407 1.0534062,1.0534062 0 0 0 -1.05341,-1.053406 m 0,2.809083 a 1.0534062,1.0534062 0 0 0 -1.0534,1.053407 1.0534062,1.0534062 0 0 0 1.0534,1.053406 1.0534062,1.0534062 0 0 0 1.05341,-1.053406 1.0534062,1.0534062 0 0 0 -1.05341,-1.053407 m -2.80908,3.160219 a 0.70227083,0.70227083 0 0 0 -0.70227,0.702271 0.70227083,0.70227083 0 0 0 0.70227,0.702271 0.70227083,0.70227083 0 0 0 0.70227,-0.702271 0.70227083,0.70227083 0 0 0 -0.70227,-0.702271 m 0,-5.969302 a 1.0534062,1.0534062 0 0 0 -1.05341,1.053406 1.0534062,1.0534062 0 0 0 1.05341,1.053407 1.0534062,1.0534062 0 0 0 1.0534,-1.053407 1.0534062,1.0534062 0 0 0 -1.0534,-1.053406 m 2.80908,8.42725 a 0.35113541,0.35113541 0 0 0 -0.35113,0.351135 0.35113541,0.35113541 0 0 0 0.35113,0.351136 0.35113541,0.35113541 0 0 0 0.35114,-0.351136 0.35113541,0.35113541 0 0 0 -0.35114,-0.351135 m 0,-2.457948 a 0.70227083,0.70227083 0 0 0 -0.70227,0.702271 0.70227083,0.70227083 0 0 0 0.70227,0.702271 0.70227083,0.70227083 0 0 0 0.70227,-0.702271 0.70227083,0.70227083 0 0 0 -0.70227,-0.702271 m 4.9159,-2.457948 a 0.35113541,0.35113541 0 0 0 -0.35114,0.351136 0.35113541,0.35113541 0 0 0 0.35114,0.351135 0.35113541,0.35113541 0 0 0 0.35113,-0.351135 0.35113541,0.35113541 0 0 0 -0.35113,-0.351136 m -2.10682,-5.969302 a 0.70227083,0.70227083 0 0 0 -0.70227,0.702271 0.70227083,0.70227083 0 0 0 0.70227,0.702271 0.70227083,0.70227083 0 0 0 0.70228,-0.702271 0.70227083,0.70227083 0 0 0 -0.70228,-0.702271 m 0,2.809084 a 0.70227083,0.70227083 0 0 0 -0.70227,0.70227 0.70227083,0.70227083 0 0 0 0.70227,0.702271 0.70227083,0.70227083 0 0 0 0.70228,-0.702271 0.70227083,0.70227083 0 0 0 -0.70228,-0.70227 m 0,5.618166 a 0.70227083,0.70227083 0 0 0 -0.70227,0.702271 0.70227083,0.70227083 0 0 0 0.70227,0.702271 0.70227083,0.70227083 0 0 0 0.70228,-0.702271 0.70227083,0.70227083 0 0 0 -0.70228,-0.702271 m 0,-2.809083 a 0.70227083,0.70227083 0 0 0 -0.70227,0.702271 0.70227083,0.70227083 0 0 0 0.70227,0.70227 0.70227083,0.70227083 0 0 0 0.70228,-0.70227 0.70227083,0.70227083 0 0 0 -0.70228,-0.702271 m -5.61816,-0.351136 a 1.0534062,1.0534062 0 0 0 -1.05341,1.053407 1.0534062,1.0534062 0 0 0 1.05341,1.053406 1.0534062,1.0534062 0 0 0 1.0534,-1.053406 1.0534062,1.0534062 0 0 0 -1.0534,-1.053407 m 0,-3.862489 a 0.70227083,0.70227083 0 0 0 0.70227,-0.702271 0.70227083,0.70227083 0 0 0 -0.70227,-0.702271 0.70227083,0.70227083 0 0 0 -0.70227,0.702271 0.70227083,0.70227083 0 0 0 0.70227,0.702271 m 0,-2.457948 a 0.35113541,0.35113541 0 0 0 0.35113,-0.351135 0.35113541,0.35113541 0 0 0 -0.35113,-0.351136 0.35113541,0.35113541 0 0 0 -0.35114,0.351136 0.35113541,0.35113541 0 0 0 0.35114,0.351135 m 0,11.938604 a 0.35113541,0.35113541 0 0 0 -0.35114,0.351135 0.35113541,0.35113541 0 0 0 0.35114,0.351136 0.35113541,0.35113541 0 0 0 0.35113,-0.351136 0.35113541,0.35113541 0 0 0 -0.35113,-0.351135 M 9.5128928,81.220073 a 0.35113541,0.35113541 0 0 0 -0.35113,0.351136 0.35113541,0.35113541 0 0 0 0.35113,0.351135 0.35113541,0.35113541 0 0 0 0.3511399,-0.351135 0.35113541,0.35113541 0 0 0 -0.3511399,-0.351136 m 7.7249802,-7.022708 a 0.35113541,0.35113541 0 0 0 0.35114,-0.351135 0.35113541,0.35113541 0 0 0 -0.35114,-0.351136 0.35113541,0.35113541 0 0 0 -0.35113,0.351136 0.35113541,0.35113541 0 0 0 0.35113,0.351135 m 0,2.457948 a 0.70227083,0.70227083 0 0 0 0.70227,-0.702271 0.70227083,0.70227083 0 0 0 -0.70227,-0.702271 0.70227083,0.70227083 0 0 0 -0.70227,0.702271 0.70227083,0.70227083 0 0 0 0.70227,0.702271 m 4.9159,2.457948 a 0.35113541,0.35113541 0 0 0 0.35113,-0.351136 0.35113541,0.35113541 0 0 0 -0.35113,-0.351135 0.35113541,0.35113541 0 0 0 -0.35114,0.351135 0.35113541,0.35113541 0 0 0 0.35114,0.351136 m -10.53406,-3.86249 a 0.70227083,0.70227083 0 0 0 -0.70228,0.702271 0.70227083,0.70227083 0 0 0 0.70228,0.702271 0.70227083,0.70227083 0 0 0 0.70227,-0.702271 0.70227083,0.70227083 0 0 0 -0.70227,-0.702271 M 9.5128928,78.41099 a 0.35113541,0.35113541 0 0 0 -0.35113,0.351135 0.35113541,0.35113541 0 0 0 0.35113,0.351136 0.35113541,0.35113541 0 0 0 0.3511399,-0.351136 0.35113541,0.35113541 0 0 0 -0.3511399,-0.351135 m 2.1068202,-0.351135 a 0.70227083,0.70227083 0 0 0 -0.70228,0.70227 0.70227083,0.70227083 0 0 0 0.70228,0.702271 0.70227083,0.70227083 0 0 0 0.70227,-0.702271 0.70227083,0.70227083 0 0 0 -0.70227,-0.70227 m 0,5.618166 a 0.70227083,0.70227083 0 0 0 -0.70228,0.702271 0.70227083,0.70227083 0 0 0 0.70228,0.702271 0.70227083,0.70227083 0 0 0 0.70227,-0.702271 0.70227083,0.70227083 0 0 0 -0.70227,-0.702271 m 0,-2.809083 a 0.70227083,0.70227083 0 0 0 -0.70228,0.702271 0.70227083,0.70227083 0 0 0 0.70228,0.70227 0.70227083,0.70227083 0 0 0 0.70227,-0.70227 0.70227083,0.70227083 0 0 0 -0.70227,-0.702271 z"
         inkscape:connector-curvature="0" />
    </g>
    <g
       id="g4541"
       transform="translate(0.16666412,0.166666)">
      <path
         transform="matrix(1.0188944,0,0,1.0188944,24.113833,60.39538)"
         d="M 35.875,19.241072 C 35.875,26.287633 30.162633,32 23.116072,32 16.06951,32 10.357143,26.287633 10.357143,19.241072 c 0,-7.046562 5.712367,-12.7589286 12.758929,-12.7589286 7.046561,0 12.758928,5.7123666 12.758928,12.7589286 z"
         sodipodi:ry="12.758928"
         sodipodi:rx="12.758928"
         sodipodi:cy="19.241072"
         sodipodi:cx="23.116072"
         id="path3016-5-1-9-2"
         style="fill:#2196f3;fill-opacity:1;fill-rule:nonzero;stroke:#000000;stroke-width:0;stroke-linecap:butt;stroke-linejoin:miter;stroke-miterlimit:4;stroke-opacity:1;stroke-dasharray:none;stroke-dashoffset:0;display:inline"
         sodipodi:type="arc" />
      <path
         style="fill:#ffffff;display:inline"
         id="path4-1-2"
         d="m 52.008469,74.417682 h -2.48103 v 1.240515 h 2.48103 v 2.48103 h 1.24052 v -2.48103 c 0,-0.688486 -0.55823,-1.240515 -1.24052,-1.240515 m 0,9.924117 h -2.48103 v 1.24052 h 2.48103 a 1.2405149,1.2405149 0 0 0 1.24052,-1.24052 v -2.48103 h -1.24052 m -8.6836,0 h -1.24052 v 2.48103 a 1.2405149,1.2405149 0 0 0 1.24052,1.24052 h 2.48103 v -1.24052 h -2.48103 m -1.24052,-8.683602 v 2.48103 h 1.24052 v -2.48103 h 2.48103 v -1.240515 h -2.48103 a 1.2405149,1.2405149 0 0 0 -1.24052,1.240515 z"
         inkscape:connector-curvature="0" />
    </g>
    <g
       id="g4545">
      <path
         transform="matrix(1.0188944,0,0,1.0188944,56.280497,60.562046)"
         d="m 35.875,19.241072 a 12.758928,12.758928 0 1 1 -25.517857,0 12.758928,12.758928 0 1 1 25.517857,0 z"
         sodipodi:ry="12.758928"
         sodipodi:rx="12.758928"
         sodipodi:cy="19.241072"
         sodipodi:cx="23.116072"
         id="path3016-5-1-9-8"
         style="fill:#2196f3;fill-opacity:1;fill-rule:nonzero;stroke:#000000;stroke-width:0;stroke-linecap:butt;stroke-linejoin:miter;stroke-miterlimit:4;stroke-opacity:1;stroke-dasharray:none;stroke-dashoffset:0;display:inline"
         sodipodi:type="arc" />
      <path
         style="fill:#ffffff;display:inline"
         sodipodi:nodetypes="cccccssssssscccccccccccccccccc"
         inkscape:connector-curvature="0"
         id="path4-7-6"
         d="m 82.664113,82.972222 -5.61111,0 0,-5.611112 5.61111,0 m 0.3507,-1.402778 -6.3125,0 c -0.55088,0 -1.05209,0.501214 -1.05209,1.052084 l 0,6.3125 c 0,0.55087 0.50121,1.052084 1.05209,1.052084 l 6.3125,0 c 0.55086,0 1.05207,-0.501214 1.05207,-1.052084 l 0,-6.3125 c 0,-0.55087 -0.50121,-1.052084 -1.05207,-1.052084 m 1.72824,7.719997 1.40278,0 0,-7.013888 -1.40278,0 m 2.10417,1.402777 0,4.208334 1.40277,0 0,-4.208334 m -14.72916,5.611111 1.40278,0 0,-7.013888 -1.40278,0 m -2.10416,5.611111 1.40277,0 0,-4.208334 -1.40277,0 z" />
    </g>
  </g>
</svg>
